<svg width="140" height="51" viewBox="0 0 140 51" fill="none" xmlns="http://www.w3.org/2000/svg">
<path d="M0.272424 39.3395C0.175413 39.2749 0.126908 39.2102 0.126908 39.1455C0.126908 39.0808 0.175413 39.0162 0.272424 38.9515C0.337097 38.8545 0.401771 38.7898 0.466444 38.7575C1.11318 38.5635 1.71141 38.3533 2.26113 38.1269C2.84319 37.9006 3.39292 37.5772 3.91031 37.1568C4.07199 36.9951 4.5247 36.3646 5.26845 35.2651C6.01219 34.1333 6.94996 32.662 8.08174 30.8511C9.21353 29.0403 10.4585 27.0192 11.8166 24.788C13.2071 22.5568 14.5976 20.2447 15.9881 17.8518L13.3688 19.695C12.8514 20.083 12.3664 20.4872 11.9136 20.9076C11.4933 21.2956 10.9759 21.7322 10.3615 22.2172C10.1675 22.3789 9.86026 22.4598 9.43989 22.4598C9.11652 22.4598 8.80932 22.3951 8.51829 22.2657C8.22726 22.1364 8.08174 22.0071 8.08174 21.8777C8.08174 21.7484 8.21109 21.6352 8.46978 21.5382C8.85782 21.3765 9.47222 21.0208 10.313 20.4711C11.1861 19.889 12.14 19.2261 13.1748 18.4823C14.2096 17.7386 15.212 17.0272 16.1821 16.3481C17.1522 15.6367 17.9606 15.0547 18.6073 14.6019C19.2864 14.1492 19.6583 13.9229 19.723 13.9229C19.82 13.9552 19.8685 14.1007 19.8685 14.3594C19.8685 14.6828 19.7553 15.1517 19.5289 15.7661C19.3349 16.3805 19.0277 17.0595 18.6073 17.8033C18.4457 18.0943 18.0415 18.7734 17.3947 19.8405C16.7803 20.8753 16.0204 22.1202 15.115 23.5754C14.2096 25.0305 13.2718 26.5504 12.3017 28.1349C11.3316 29.687 10.4262 31.1583 9.5854 32.5488C8.74465 33.9393 8.04941 35.0711 7.49968 35.9442C6.98229 36.8173 6.7236 37.2862 6.7236 37.3508C6.78827 37.7065 6.99846 37.9976 7.35417 38.2239C7.70987 38.4179 8.04941 38.5635 8.37277 38.6605C8.69614 38.7251 8.85782 38.7736 8.85782 38.806C8.98717 38.903 9.05185 39 9.05185 39.097C9.08418 39.194 9.01951 39.2587 8.85782 39.291C8.43745 39.2264 7.96856 39.194 7.45118 39.194C6.93379 39.194 6.40023 39.194 5.85051 39.194C4.62171 39.194 3.44142 39.2102 2.30964 39.2425C1.21019 39.3072 0.531117 39.3395 0.272424 39.3395ZM22.1456 42.3469C19.8497 42.3469 18.1681 41.7486 17.101 40.5522C16.0663 39.3557 15.5489 37.9652 15.5489 36.3807C15.5489 35.0226 15.8884 33.6806 16.5675 32.3548C17.2789 30.9967 18.2813 29.8649 19.5748 28.9594C20.8683 28.054 22.3881 27.6013 24.1343 27.6013C24.5223 27.6013 24.9427 27.6983 25.3954 27.8923C25.8805 28.054 26.3008 28.345 26.6565 28.7654C27.0122 29.1535 27.1901 29.6709 27.1901 30.3176C27.1901 30.6086 27.1416 30.9482 27.0446 31.3362C26.9799 31.5949 26.8344 31.7566 26.608 31.8212C26.414 31.8859 26.3493 31.7727 26.414 31.4817C26.5434 31.126 26.608 30.7865 26.608 30.4631C26.608 29.8164 26.3817 29.3313 25.929 29.008C25.5086 28.6522 25.0235 28.4582 24.4738 28.4259C23.0833 28.3289 21.8707 28.6846 20.8359 29.493C19.8012 30.3014 18.9927 31.3362 18.4107 32.5973C17.8609 33.8261 17.5861 35.0711 17.5861 36.3322C17.5861 37.755 17.958 39 18.7017 40.0671C19.4778 41.1342 20.7066 41.6678 22.3881 41.6678C24.4253 41.6678 26.2362 41.2959 27.8207 40.5522C29.4375 39.8084 30.828 38.8221 31.9921 37.5934C33.1562 36.3646 34.0616 34.9902 34.7084 33.4704C35.3875 31.9183 35.7917 30.3661 35.921 28.8139C36.0827 26.5827 35.5815 24.9659 34.4174 23.9634C33.2856 22.9286 31.8951 22.4113 30.2459 22.4113C28.3704 22.4113 26.5757 22.9286 24.8619 23.9634C24.6355 23.9634 24.3768 23.8341 24.0858 23.5754C23.7947 23.2844 23.5684 23.0095 23.4067 22.7508C23.2774 22.4598 23.2935 22.3142 23.4552 22.3142C23.5199 22.2172 23.7301 21.9262 24.0858 21.4412C24.4738 20.9561 24.9265 20.374 25.4439 19.695C25.9936 19.0159 26.5272 18.3368 27.0446 17.6578C27.562 16.9464 28.0147 16.2996 28.4027 15.7176C28.8231 15.1355 29.098 14.7313 29.2273 14.5049C29.2273 14.5049 29.2596 14.5211 29.3243 14.5534C29.4213 14.5858 29.6153 14.6828 29.9064 14.8445C30.3268 15.0708 30.7956 15.184 31.313 15.184C31.7334 15.184 32.1376 15.1355 32.5257 15.0385C32.946 14.9091 33.3179 14.7798 33.6413 14.6504C34.7731 14.3271 36.018 13.9875 37.3762 13.6318C38.7343 13.2438 40.0278 13.0498 41.2566 13.0498C41.7416 13.0498 42.2267 13.0983 42.7117 13.1953C43.3908 13.3246 43.9244 13.648 44.3124 14.1654C44.7004 14.6504 44.8945 15.2163 44.8945 15.8631C44.8945 15.9924 44.8783 16.1056 44.8459 16.2026C44.8459 16.2996 44.8298 16.4128 44.7974 16.5421C44.7328 16.8655 44.5711 17.1727 44.3124 17.4637C44.086 17.7548 43.8435 17.9811 43.5848 18.1428C43.4555 18.2398 43.3423 18.2883 43.2453 18.2883C43.1159 18.2883 43.0513 18.2075 43.0513 18.0458C43.0513 17.8841 43.1483 17.6416 43.3423 17.3182C43.4393 17.1565 43.4878 17.0272 43.4878 16.9302C43.4878 16.5745 43.2776 16.2349 42.8572 15.9116C42.4369 15.5559 41.9518 15.3457 41.4021 15.281C41.1757 15.2487 40.9332 15.2325 40.6745 15.2325C40.4158 15.2002 40.1571 15.184 39.8984 15.184C38.7343 15.184 37.5702 15.2972 36.4061 15.5235C35.2419 15.7499 34.094 15.9116 32.9622 16.0086C32.7358 16.0409 32.4933 16.0733 32.2346 16.1056C32.0083 16.1056 31.7657 16.1056 31.507 16.1056C31.3454 16.1056 31.1675 16.1056 30.9735 16.1056C30.7795 16.0733 30.6016 16.0409 30.4399 16.0086C30.3429 16.0086 30.0681 16.2996 29.6153 16.8817C29.195 17.4314 28.7261 18.0943 28.2087 18.8704C27.6913 19.6141 27.2063 20.3094 26.7535 20.9561C26.3332 21.6028 26.0745 22.0232 25.9775 22.2172C26.7212 21.8939 27.4811 21.6675 28.2572 21.5382C29.0656 21.3765 29.8255 21.2956 30.5369 21.2956C32.0891 21.2956 33.4958 21.6028 34.7569 22.2172C36.0504 22.7993 37.0528 23.6401 37.7642 24.7395C38.5079 25.839 38.799 27.1648 38.6373 28.7169C38.4756 30.2044 38.0067 31.7404 37.2306 33.3249C36.4546 34.9094 35.3713 36.3969 33.9808 37.7874C32.5903 39.1455 30.9088 40.245 28.9363 41.0857C26.9637 41.9265 24.7002 42.3469 22.1456 42.3469ZM46.4663 50.0592C45.0435 50.0592 43.7177 49.8651 42.4889 49.4771C41.2601 49.0891 40.2738 48.4423 39.5301 47.5369C38.754 46.6315 38.366 45.435 38.366 43.9475C38.366 43.4301 38.4145 42.9127 38.5115 42.3954C38.5115 42.2013 38.6247 42.1043 38.851 42.1043C39.045 42.1043 39.142 42.1852 39.142 42.3469C39.142 42.5409 39.142 42.7187 39.142 42.8804C39.1097 43.0421 39.0935 43.2038 39.0935 43.3655C39.0935 44.7559 39.4978 45.8877 40.3062 46.7608C41.0823 47.6339 42.1009 48.2645 43.362 48.6525C44.6231 49.0729 45.9651 49.2831 47.3879 49.2831C48.4227 49.2831 49.4575 49.1699 50.4922 48.9435C51.527 48.7495 52.481 48.4747 53.354 48.119C55.2619 47.3105 57.0404 46.1949 58.6896 44.7721C60.3388 43.3816 61.9071 41.8618 63.3946 40.2126C63.1682 40.245 62.9257 40.2611 62.667 40.2611C62.4407 40.2935 62.1981 40.3096 61.9394 40.3096C61.0987 40.3096 60.2741 40.2288 59.4657 40.0671C58.6896 39.9054 57.9459 39.6791 57.2344 39.388C54.8739 38.3209 53.16 36.8658 52.0929 35.0226C51.0581 33.1471 50.5407 31.1098 50.5407 28.9109C50.5407 27.3911 50.7509 25.839 51.1713 24.2545C51.624 22.6376 52.2546 21.0855 53.063 19.598C52.869 18.7249 52.772 17.8194 52.772 16.8817C52.772 14.9738 53.1924 13.0498 54.0331 11.1096C54.8739 9.13703 56.1027 7.34234 57.7195 5.72551C59.3687 4.07633 61.4059 2.75053 63.8311 1.74809C66.2564 0.745652 69.0697 0.244433 72.271 0.244433C74.7933 0.244433 77.1054 0.66481 79.2073 1.50556C81.3091 2.31398 83.0553 3.51044 84.4458 5.09494C85.8363 6.6471 86.7094 8.55497 87.0651 10.8185C88.7466 8.97535 90.3634 7.32618 91.9156 5.87102C93.4678 4.41587 94.9391 3.28408 96.3296 2.47567C97.5583 1.76426 98.7386 1.24687 99.8704 0.923504C101.002 0.600137 102.069 0.438454 103.072 0.438454C104.818 0.438454 106.241 0.891168 107.34 1.7966C108.472 2.66969 109.038 3.83381 109.038 5.28896C109.038 6.61477 108.472 8.13459 107.34 9.84844C106.208 11.53 104.317 13.2761 101.665 15.087C100.436 15.9277 99.159 16.6715 97.8332 17.3182C96.5397 17.965 95.2139 18.5147 93.8558 18.9674L92.6432 20.9561C92.3521 21.4088 91.9479 22.1041 91.4305 23.0418C90.9132 23.9473 90.3473 24.982 89.7329 26.1462C89.1508 27.3103 88.5849 28.5229 88.0352 29.784C87.4855 31.0128 87.0327 32.1931 86.677 33.3249C86.3213 34.4567 86.1435 35.443 86.1435 36.2837C86.1435 37.2215 86.4345 37.8682 87.0166 38.2239C87.2429 38.3533 87.534 38.4179 87.8897 38.4179C88.6657 38.4179 89.5227 38.0622 90.4604 37.3508C91.4305 36.6071 92.4006 35.5885 93.3707 34.295C94.3732 32.9692 95.2948 31.4332 96.1355 29.687C96.2325 29.5253 96.3457 29.4445 96.4751 29.4445C96.7014 29.4445 96.7661 29.5738 96.6691 29.8325C95.8283 31.5787 94.9067 33.1632 93.9043 34.586C92.9342 36.0089 91.8994 37.1568 90.8 38.0299C89.7329 38.8707 88.6172 39.291 87.4531 39.291C86.1597 39.291 85.2057 38.8868 84.5913 38.0784C84.0093 37.2376 83.7182 36.1544 83.7182 34.8286C83.7506 32.3386 84.365 29.8487 85.5614 27.3588C86.7902 24.8689 88.2939 22.4436 90.0724 20.083C89.2963 20.2447 88.5202 20.4064 87.7442 20.5681C87.0004 20.6974 86.2243 20.8268 85.4159 20.9561C85.1572 21.6352 84.85 22.3142 84.4943 22.9933C84.1386 23.6724 83.7344 24.3838 83.2817 25.1275C80.5977 29.5253 77.6874 32.9207 74.5508 35.3136C71.4464 37.6742 68.4553 39.194 65.5773 39.8731C63.8635 41.6516 62.0041 43.3331 59.9992 44.9176C57.9944 46.5345 55.8601 47.7956 53.5966 48.701C52.5618 49.1214 51.4138 49.4448 50.1527 49.6711C48.9239 49.9298 47.6951 50.0592 46.4663 50.0592ZM74.1142 20.0345L79.7408 19.792C80.8403 18.4015 81.9235 17.0434 82.9907 15.7176C84.0578 14.3918 85.1087 13.1306 86.1435 11.9342C85.9171 9.60591 85.141 7.64954 83.8152 6.06504C82.5218 4.48054 80.8403 3.28408 78.7707 2.47567C76.7335 1.63491 74.4861 1.21453 72.0285 1.21453C68.9888 1.21453 66.3211 1.73192 64.0252 2.7667C61.7293 3.80147 59.8052 5.15961 58.2531 6.84112C56.7332 8.52264 55.6014 10.3497 54.8577 12.3222C54.1463 14.2624 53.8553 16.1541 53.9846 17.9973C55.8601 14.99 57.9782 12.8234 60.3388 11.4976C62.7317 10.1395 64.9791 9.4604 67.081 9.4604C68.5038 9.4604 69.7973 9.75143 70.9614 10.3335C72.1255 10.8832 73.0471 11.6755 73.7262 12.7102C74.4053 13.745 74.7448 15.0061 74.7448 16.4936C74.7448 17.6254 74.5346 18.8057 74.1142 20.0345ZM86.095 19.2584C87.9058 19.0644 89.652 18.7734 91.3335 18.3853C93.4031 15.8307 95.5696 13.4216 97.8332 11.1581C100.129 8.86217 102.118 6.77645 103.799 4.90092C103.961 4.73924 104.09 4.6584 104.187 4.6584C104.349 4.6584 104.43 4.77157 104.43 4.99793C104.43 5.12728 104.365 5.24046 104.236 5.33747C102.91 6.63094 101.406 8.36095 99.7249 10.5275C98.0757 12.6941 96.4427 15.0061 94.8259 17.4637C95.9253 17.108 96.9925 16.7038 98.0272 16.2511C99.0943 15.7661 100.113 15.2163 101.083 14.6019C103.702 12.9528 105.578 11.3521 106.71 9.79993C107.874 8.24777 108.456 6.88963 108.456 5.72551C108.456 4.62606 108.052 3.76914 107.243 3.15474C106.435 2.508 105.335 2.18463 103.945 2.18463C103.007 2.18463 101.956 2.36249 100.792 2.71819C99.6279 3.04156 98.3991 3.57512 97.1056 4.31886C95.6181 5.22429 94.0336 6.46925 92.3521 8.05375C90.703 9.63825 89.0053 11.4329 87.2591 13.4378C87.2268 15.2163 86.8387 17.1565 86.095 19.2584ZM57.768 25.0305C58.2854 23.9958 59.2717 23.0418 60.7268 22.1687C62.2143 21.2956 64.2515 20.7297 66.8385 20.4711C68.9727 20.277 71.1877 20.1315 73.4837 20.0345C73.904 18.8704 74.1142 17.7386 74.1142 16.6392C74.1142 14.6989 73.4675 13.1791 72.174 12.0797C70.9129 10.9479 69.3284 10.382 67.4205 10.382C66.0624 10.382 64.6072 10.7215 63.0551 11.4006C61.5029 12.0473 59.9669 13.0659 58.4471 14.4564C56.9273 15.8469 55.5368 17.6739 54.2756 19.9375C54.5343 20.9723 54.9547 21.9262 55.5368 22.7993C56.1188 23.6724 56.8626 24.4161 57.768 25.0305ZM82.1176 19.6465L84.9794 19.4039C85.3027 18.5632 85.5453 17.7548 85.7069 16.9787C85.901 16.2026 86.0303 15.4589 86.095 14.7475C85.4482 15.5235 84.7853 16.332 84.1063 17.1727C83.4595 17.9811 82.7966 18.8057 82.1176 19.6465ZM66.4989 38.8545C69.0859 38.0784 71.7536 36.5747 74.5023 34.3435C77.2509 32.1123 79.8217 29.008 82.2146 25.0305C82.6349 24.3515 83.0068 23.6886 83.3302 23.0418C83.6859 22.3951 84.0093 21.7645 84.3003 21.1501L80.5654 21.5867C78.5929 24.0443 76.6041 26.5504 74.5993 29.105C72.6267 31.6272 70.6704 34.0363 68.7302 36.3322C68.3745 36.7526 68.0026 37.173 67.6145 37.5934C67.2588 38.0137 66.887 38.4341 66.4989 38.8545ZM62.0365 39.5821C62.7155 39.5821 63.4108 39.5336 64.1222 39.4365C64.7042 38.7575 65.2701 38.0784 65.8198 37.3993C66.4019 36.7203 66.9516 36.0574 67.469 35.4106C69.2152 33.3087 70.9776 31.0937 72.7561 28.7654C74.5669 26.4372 76.3616 24.1251 78.1401 21.8292C77.3317 21.8939 76.5071 21.9585 75.6664 22.0232C74.8256 22.0879 73.9849 22.1526 73.1441 22.2172C72.5297 23.349 71.6728 24.4808 70.5733 25.6126C69.5062 26.712 68.1643 27.7792 66.5474 28.8139C65.5773 29.4283 64.6719 29.8649 63.8311 30.1236C62.9904 30.3823 62.1981 30.5116 61.4544 30.5116C60.1609 30.5116 59.1423 30.1559 58.3986 29.4445C57.6548 28.7331 57.283 27.8762 57.283 26.8737C57.283 26.421 57.3476 26.0006 57.477 25.6126C56.5715 25.0952 55.7955 24.4646 55.1487 23.7209C54.502 22.9772 53.9846 22.1526 53.5966 21.2471C52.9822 22.5729 52.481 23.9311 52.0929 25.3216C51.7372 26.712 51.5594 28.0702 51.5594 29.396C51.5594 31.3685 52.0121 33.1956 52.9175 34.8771C53.8553 36.5262 55.3913 37.8035 57.5255 38.709C58.8836 39.291 60.3873 39.5821 62.0365 39.5821ZM61.4544 29.881C62.0365 29.881 62.7155 29.7517 63.4916 29.493C64.3 29.2343 65.1893 28.8139 66.1594 28.2319C67.6792 27.2941 68.9403 26.324 69.9428 25.3216C70.9776 24.3191 71.8021 23.3167 72.4165 22.3142L69.1182 22.6053C66.7576 22.8316 64.8497 23.2844 63.3946 23.9634C61.9394 24.6425 60.8723 25.3701 60.1933 26.1462C61.3574 26.4695 62.6832 26.615 64.1707 26.5827C64.5264 26.5827 64.7042 26.6635 64.7042 26.8252C64.7042 26.9869 64.5425 27.0677 64.2192 27.0677C63.4108 27.1001 62.6347 27.0839 61.8909 27.0192C61.1795 26.9222 60.5005 26.7767 59.8537 26.5827C59.4657 27.1648 59.2717 27.6983 59.2717 28.1834C59.2717 28.6684 59.4495 29.0726 59.8052 29.396C60.1933 29.7194 60.743 29.881 61.4544 29.881ZM105.06 39.2425C103.702 39.2425 103.023 38.4826 103.023 36.9628C103.023 36.3807 103.136 35.6855 103.362 34.8771C103.589 34.0686 103.944 33.1794 104.43 32.2093C104.688 31.6596 105.028 31.0128 105.448 30.2691C105.901 29.493 106.305 28.7331 106.661 27.9893C107.016 27.2456 107.194 26.6635 107.194 26.2432C107.194 25.8228 106.968 25.6126 106.515 25.6126C105.901 25.6126 105.254 25.9521 104.575 26.6312C103.928 27.2779 103.282 28.1187 102.635 29.1535C101.988 30.1882 101.374 31.2715 100.792 32.4033C100.21 33.5351 99.7084 34.6022 99.288 35.6046C98.8676 36.5747 98.5604 37.3185 98.3664 37.8359C98.1724 38.3209 97.8975 38.6281 97.5418 38.7575C97.1861 38.8868 96.798 38.9515 96.3777 38.9515C95.9896 38.9515 95.6178 39.0162 95.2621 39.1455C95.7148 38.1107 96.0866 37.27 96.3777 36.6233C96.6687 35.9765 96.9759 35.3298 97.2993 34.683C97.6226 34.004 98.0107 33.0985 98.4634 31.9668C98.7221 31.3847 99.0131 30.7218 99.3365 29.9781C99.6598 29.202 99.9347 28.4582 100.161 27.7468C100.42 27.0031 100.549 26.421 100.549 26.0006C100.549 25.5156 100.387 25.2731 100.064 25.2731C99.676 25.2731 99.288 25.5156 98.8999 26.0006C98.5119 26.4857 98.1562 27.0354 97.8328 27.6498C97.5418 28.2319 97.2993 28.7008 97.1052 29.0565C96.6202 29.9942 96.1351 30.9158 95.6501 31.8212C95.165 32.7267 94.6153 33.5998 94.0009 34.4405H93.9524C93.8554 34.4405 93.7422 34.4082 93.6129 34.3435C93.5159 34.2788 93.4835 34.2303 93.5159 34.198C94.0656 33.3249 94.583 32.4518 95.068 31.5787C95.5854 30.7056 96.0543 29.8325 96.4747 28.9594C96.8304 28.2804 97.2184 27.569 97.6388 26.8252C98.0592 26.0491 98.5442 25.4024 99.094 24.885C99.6437 24.3676 100.274 24.1089 100.986 24.1089C101.309 24.1089 101.681 24.1898 102.101 24.3515C102.554 24.5455 102.78 24.982 102.78 25.6611C102.78 26.0168 102.716 26.4534 102.586 26.9707C102.457 27.4881 102.279 28.0702 102.053 28.7169C102.894 27.5205 103.783 26.5019 104.721 25.6611C105.658 24.788 106.515 24.3515 107.291 24.3515C108.52 24.3515 109.135 24.9335 109.135 26.0976C109.135 26.8091 108.924 27.6821 108.504 28.7169C108.375 29.0726 108.132 29.6385 107.776 30.4146C107.453 31.1583 107.113 31.9991 106.758 32.9369C106.434 33.8423 106.143 34.7154 105.885 35.5561C105.626 36.3969 105.497 37.0921 105.497 37.6419C105.497 38.2239 105.674 38.5149 106.03 38.5149C106.257 38.5149 106.548 38.4179 106.903 38.2239C107.291 37.9976 107.744 37.6419 108.261 37.1568C109.199 36.3161 110.072 35.2489 110.881 33.9555C111.721 32.662 112.708 30.932 113.84 28.7654C113.84 28.7008 113.872 28.6684 113.937 28.6684C114.034 28.6684 114.131 28.7169 114.228 28.8139C114.325 28.9109 114.341 28.9918 114.276 29.0565C113.112 31.32 112.045 33.2117 111.075 34.7316C110.137 36.219 109.183 37.3508 108.213 38.1269C107.275 38.8707 106.224 39.2425 105.06 39.2425ZM114.299 39.2425C113.232 39.2425 112.488 38.9515 112.068 38.3694C111.68 37.755 111.485 37.0113 111.485 36.1382C111.485 35.2004 111.647 34.2142 111.971 33.1794C112.294 32.1123 112.601 31.2554 112.892 30.6086C113.765 28.5714 114.865 26.9869 116.19 25.8551C117.516 24.691 118.729 24.1089 119.828 24.1089C120.766 24.1089 121.397 24.3838 121.72 24.9335C122.076 25.4832 122.254 26.1623 122.254 26.9707C122.254 27.8115 122.108 28.7008 121.817 29.6385C121.558 30.5439 121.267 31.32 120.944 31.9668C120.556 32.7752 120.152 33.5351 119.731 34.2465C119.311 34.9579 118.874 35.6046 118.422 36.1867C118.713 36.4454 119.068 36.5747 119.489 36.5747C120.136 36.5747 120.766 36.2675 121.381 35.6531C122.027 35.0388 122.626 34.2788 123.175 33.3734C123.757 32.468 124.259 31.5949 124.679 30.7541C125.132 29.9134 125.471 29.2828 125.697 28.8624C125.762 28.7654 125.827 28.7169 125.892 28.7169C125.956 28.7169 126.021 28.7816 126.086 28.9109C126.15 29.008 126.15 29.1211 126.086 29.2505C125.568 30.3499 124.921 31.5787 124.145 32.9369C123.402 34.295 122.561 35.4106 121.623 36.2837C121.235 36.6394 120.863 36.8981 120.507 37.0598C120.152 37.2215 119.828 37.3023 119.537 37.3023C118.988 37.3023 118.503 37.0921 118.082 36.6718C117.468 37.4802 116.837 38.1107 116.19 38.5635C115.544 39.0162 114.913 39.2425 114.299 39.2425ZM114.881 38.5149C115.237 38.5149 115.657 38.3048 116.142 37.8844C116.627 37.4317 117.128 36.8496 117.646 36.1382C117.646 36.1382 117.549 35.9765 117.355 35.6531C117.193 35.3298 117.112 34.8447 117.112 34.198C117.112 33.9393 117.128 33.6644 117.161 33.3734C117.193 33.05 117.274 32.7267 117.403 32.4033C117.629 31.7566 117.904 31.2877 118.228 30.9967C118.551 30.6733 118.874 30.5116 119.198 30.5116C119.489 30.5116 119.715 30.6571 119.877 30.9482C120.071 31.2068 120.119 31.5949 120.022 32.1123C120.475 31.1098 120.847 30.1397 121.138 29.202C121.429 28.2319 121.575 27.3911 121.575 26.6797C121.575 26.13 121.461 25.6934 121.235 25.3701C121.041 25.0144 120.685 24.8365 120.168 24.8365C119.715 24.8365 119.198 25.1275 118.616 25.7096C118.034 26.2593 117.435 27.0031 116.821 27.9408C116.239 28.8463 115.689 29.8325 115.172 30.8996C114.687 31.9668 114.283 33.0177 113.959 34.0525C113.668 35.0549 113.523 35.928 113.523 36.6718C113.523 37.2215 113.62 37.6742 113.814 38.0299C114.04 38.3533 114.396 38.5149 114.881 38.5149ZM127.446 39.4851C125.376 39.4851 123.954 39.1132 123.177 38.3694C122.434 37.6257 122.062 36.8011 122.062 35.8957C122.062 35.0549 122.272 34.295 122.692 33.6159C123.113 32.9045 123.533 32.4841 123.954 32.3548C124.245 31.8374 124.552 31.2715 124.875 30.6571C125.231 30.0427 125.554 29.4445 125.845 28.8624C126.427 27.6983 127.026 26.5989 127.64 25.5641C128.254 24.497 128.917 23.6401 129.629 22.9933C130.372 22.3466 131.148 22.0232 131.957 22.0232C132.345 22.0232 132.749 22.1041 133.17 22.2657C133.59 22.4598 133.8 22.6538 133.8 22.8478C133.8 22.9772 133.735 23.0742 133.606 23.1388C133.477 23.2035 133.331 23.2197 133.17 23.1873C132.587 23.0257 132.054 23.1873 131.569 23.6724C131.084 24.1574 130.841 24.8203 130.841 25.6611C130.841 25.7904 130.841 25.936 130.841 26.0976C130.874 26.227 130.906 26.3725 130.938 26.5342C131.132 27.3103 131.326 28.1995 131.52 29.202C131.747 30.2044 131.86 31.223 131.86 32.2578C131.86 32.6458 131.844 33.0339 131.811 33.4219C131.779 33.81 131.698 34.1818 131.569 34.5375C131.148 35.734 130.566 36.6879 129.823 37.3993C129.111 38.0784 128.238 38.5796 127.203 38.903C127.979 38.9353 128.788 38.8707 129.629 38.709C130.502 38.5149 131.246 38.2401 131.86 37.8844C132.927 37.27 133.865 36.4292 134.673 35.3621C135.514 34.295 136.258 33.1794 136.904 32.0153C137.551 30.8188 138.133 29.7355 138.651 28.7654C138.683 28.6361 138.78 28.5714 138.942 28.5714C139.039 28.5714 139.12 28.6199 139.184 28.7169C139.249 28.7816 139.249 28.8624 139.184 28.9594C138.537 30.1559 137.875 31.3685 137.195 32.5973C136.516 33.7938 135.756 34.9094 134.916 35.9442C134.075 36.9466 133.073 37.7712 131.908 38.4179C130.647 39.1293 129.16 39.4851 127.446 39.4851ZM125.457 38.6605C126.104 38.6605 126.767 38.4503 127.446 38.0299C128.125 37.6095 128.61 36.9951 128.901 36.1867C129.257 35.1843 129.467 34.0686 129.532 32.8399C129.629 31.5787 129.677 30.3984 129.677 29.299C129.677 28.1995 129.693 27.3588 129.726 26.7767C129.79 25.8713 130.033 25.0305 130.453 24.2545C130.874 23.446 131.585 22.961 132.587 22.7993C132.361 22.67 132.135 22.6053 131.908 22.6053C131.359 22.6053 130.793 22.8478 130.211 23.3329C129.629 23.8179 129.192 24.2545 128.901 24.6425C128.448 25.2569 128.012 25.9845 127.591 26.8252C127.171 27.666 126.702 28.5552 126.185 29.493L124.73 32.1123C124.827 32.0799 124.972 32.0638 125.166 32.0638C125.684 32.0638 126.007 32.2093 126.136 32.5003C126.298 32.7913 126.346 33.0015 126.282 33.1309C126.185 33.0985 126.088 33.0824 125.991 33.0824C125.926 33.05 125.861 33.0339 125.797 33.0339C125.247 33.0339 124.762 33.2602 124.342 33.7129C123.954 34.1657 123.679 34.6669 123.517 35.2166C123.452 35.443 123.404 35.6693 123.372 35.8957C123.339 36.0897 123.323 36.2675 123.323 36.4292C123.323 37.2053 123.533 37.7712 123.954 38.1269C124.374 38.4826 124.875 38.6605 125.457 38.6605Z" fill="url(#paint0_linear_1_5)"/>
<defs>
<linearGradient id="paint0_linear_1_5" x1="72.5" y1="-10" x2="72.5" y2="46" gradientUnits="userSpaceOnUse">
<stop stop-color="#FFCF26"/>
<stop offset="1" stop-color="#D6B131" stop-opacity="0"/>
</linearGradient>
</defs>
</svg>
