<svg width="199" height="125" viewBox="0 0 199 125" fill="none" xmlns="http://www.w3.org/2000/svg">
<path d="M9.62314 62.0246C8.106 62.0246 6.69 61.8223 5.37514 61.4177C4.06029 61.0469 2.99829 60.4063 2.18914 59.496C1.38 58.5857 0.975428 57.3551 0.975428 55.8043C0.975428 55.2649 1.026 54.7254 1.12714 54.186C1.19457 53.9837 1.31257 53.8826 1.48114 53.8826C1.68343 53.8826 1.78457 53.9669 1.78457 54.1354C1.78457 54.304 1.78457 54.4726 1.78457 54.6411C1.75086 54.8434 1.734 55.0289 1.734 55.1974C1.734 56.6471 2.15543 57.8271 2.99829 58.7374C3.80743 59.6477 4.86943 60.322 6.18429 60.7603C7.49914 61.1986 8.89829 61.4177 10.3817 61.4177C12 61.4177 13.5677 61.1817 15.0849 60.7097C16.7031 60.204 18.2371 59.4454 19.6869 58.434C21.1703 57.4563 22.5863 56.31 23.9349 54.9951C21.5411 54.3883 19.4677 53.3263 17.7146 51.8091C15.9614 50.292 14.6129 48.4546 13.6689 46.2969C12.7586 44.1391 12.3034 41.8466 12.3034 39.4191C12.3034 37.2277 12.6743 35.0869 13.416 32.9966C14.3263 30.4343 15.658 27.9563 17.4111 25.5626C19.1643 23.1689 21.4906 20.9943 24.39 19.0389C27.2894 17.0834 30.88 15.482 35.1617 14.2346C39.4771 12.9871 44.6186 12.2286 50.586 11.9589C51.294 11.9251 52.1369 11.9083 53.1146 11.9083C54.126 11.9083 55.1037 11.9083 56.0477 11.9083C56.722 11.7397 57.312 11.6554 57.8177 11.6554C58.3571 11.6554 58.846 11.7229 59.2843 11.8577C59.3854 11.8914 59.436 11.9926 59.436 12.1611C59.4697 12.1949 59.4866 12.2623 59.4866 12.3634C59.4866 12.5994 59.3517 12.7174 59.082 12.7174C57.8683 12.7511 56.8906 13.1726 56.1489 13.9817C55.4071 14.7909 54.6654 15.836 53.9237 17.1171C53.4517 18.0274 53.0977 19.0726 52.8617 20.2526C52.6257 21.4326 52.474 22.7137 52.4066 24.096C53.3506 24.8714 54.0754 25.7649 54.5811 26.7763C55.1206 27.7877 55.3566 28.8834 55.2891 30.0634C55.2891 30.2994 55.1711 30.4174 54.9351 30.4174C54.6654 30.4174 54.5306 30.2826 54.5306 30.0129C54.598 29.0351 54.4294 28.1249 54.0249 27.282C53.654 26.4054 53.1146 25.6131 52.4066 24.9051C52.3054 27.2651 52.2211 29.7937 52.1537 32.4909C52.12 35.188 51.7491 37.8177 51.0411 40.38C51.9514 40.3126 52.828 40.2114 53.6709 40.0766C54.8846 38.0874 56.1489 35.9466 57.4637 33.654C58.7786 31.3614 60.1271 29.0183 61.5094 26.6246C62.8917 24.2309 64.3246 21.9214 65.808 19.6963C67.2914 17.4711 68.8423 15.4483 70.4606 13.6277C72.3149 11.5374 74.1691 10.0203 76.0234 9.07628C77.8777 8.13228 79.5803 7.66028 81.1312 7.66028C82.918 7.66028 84.3846 8.25028 85.5309 9.43028C86.7109 10.5766 87.3009 12.1443 87.3009 14.1334C87.3009 16.3249 86.4411 18.9209 84.7217 21.9214C83.036 24.8883 80.1366 28.0743 76.0234 31.4794C73.3937 33.6371 70.3763 35.4577 66.9711 36.9411C65.6226 39.5709 64.5606 41.9646 63.7851 44.1223C63.0434 46.2463 62.6726 47.9994 62.6726 49.3817C62.6726 50.3594 62.8749 51.118 63.2794 51.6574C63.7177 52.2306 64.3751 52.5171 65.2517 52.5171C66.2969 52.5171 67.46 52.0114 68.7411 51C70.056 50.0223 71.354 48.6906 72.6351 47.0049C73.9163 45.2854 75.0457 43.3806 76.0234 41.2903C76.1246 41.1217 76.2426 41.0374 76.3774 41.0374C76.6134 41.0374 76.6809 41.1723 76.5797 41.442C75.602 43.4649 74.4726 45.4203 73.1914 47.3083C71.944 49.1963 70.5786 50.7303 69.0951 51.9103C67.6117 53.124 66.044 53.7309 64.392 53.7309C62.6726 53.7309 61.4757 53.2083 60.8014 52.1631C60.1271 51.1517 59.79 49.8706 59.79 48.3197C59.79 46.87 60.0091 45.3023 60.4474 43.6166C60.8857 41.9309 61.4251 40.3463 62.0657 38.8629C60.9194 39.2337 59.7563 39.5709 58.5763 39.8743C57.43 40.144 56.2669 40.38 55.0869 40.5823C53.6034 42.6389 52.1031 44.4931 50.586 46.1451C49.0689 47.7971 47.5854 49.0951 46.1357 50.0391C44.7197 50.9831 43.388 51.4214 42.1406 51.354C41.8709 51.354 41.736 51.2529 41.736 51.0506C41.736 50.9157 41.8034 50.7977 41.9383 50.6966C43.3543 49.7189 44.4837 48.404 45.3266 46.752C46.2031 45.0663 46.8943 43.2289 47.4 41.2397H46.0851C44.8377 41.2397 43.5903 41.1386 42.3429 40.9363C41.0954 40.7003 39.8817 40.4137 38.7017 40.0766C37.252 42.8411 35.6 45.4709 33.7457 47.9657C31.8914 50.4606 29.8517 52.7026 27.6266 54.6917C29.7506 54.658 31.706 54.1354 33.4929 53.124C35.2797 52.1126 36.4429 50.6123 36.9823 48.6231C37.016 48.4546 37.134 48.3703 37.3363 48.3703C37.6397 48.3703 37.7577 48.522 37.6903 48.8254C37.252 50.3763 36.4766 51.6406 35.364 52.6183C34.2514 53.6297 32.9366 54.3546 31.4194 54.7929C29.936 55.2649 28.402 55.4671 26.8174 55.3997C24.8957 56.9843 22.8391 58.316 20.6477 59.3949C18.49 60.5074 16.1637 61.266 13.6689 61.6706C13.0283 61.7717 12.3709 61.856 11.6966 61.9234C10.9886 61.9909 10.2974 62.0246 9.62314 62.0246ZM55.6937 39.7731C56.8737 39.5371 58.02 39.2674 59.1326 38.964C60.2789 38.6269 61.4083 38.2729 62.5209 37.902C63.6334 35.5757 64.9146 33.2663 66.3643 30.9737C67.8477 28.6811 69.348 26.4729 70.8651 24.3489C72.416 22.2249 73.8657 20.2863 75.2143 18.5331C76.5629 16.7463 77.6586 15.246 78.5014 14.0323C78.67 13.83 78.8217 13.7289 78.9566 13.7289C79.1926 13.7289 79.3106 13.8637 79.3106 14.1334C79.3106 14.302 79.26 14.4369 79.1589 14.538C78.0463 15.9877 76.7989 17.8589 75.4166 20.1514C74.0343 22.4103 72.652 24.9051 71.2697 27.636C69.8874 30.3331 68.6231 33.0471 67.4769 35.778C68.7243 35.1374 69.9211 34.4631 71.0674 33.7551C72.2137 33.0134 73.3094 32.2211 74.3546 31.3783C77.1529 29.1531 79.4117 26.9449 81.1312 24.7534C82.8843 22.562 84.1654 20.5054 84.9746 18.5837C85.8174 16.6283 86.2389 14.9426 86.2389 13.5266C86.2389 12.2791 85.9354 11.3014 85.3286 10.5934C84.7554 9.85171 83.9294 9.48085 82.8506 9.48085C81.7043 9.48085 80.3389 9.91914 78.7543 10.7957C77.1697 11.6386 75.3829 13.0546 73.3937 15.0437C71.8091 16.6283 70.2414 18.4489 68.6906 20.5054C67.1734 22.562 65.6731 24.7197 64.1897 26.9786C62.7063 29.2037 61.2566 31.412 59.8406 33.6034C58.4246 35.7949 57.0423 37.8346 55.6937 39.7226V39.7731ZM24.5417 54.3883C26.6657 52.1631 28.6043 49.6683 30.3574 46.9037C32.1443 44.1391 33.7626 41.4589 35.2123 38.8629C33.0883 37.9189 31.3689 36.722 30.054 35.2723C28.7391 33.7889 28.1491 32.0526 28.284 30.0634C28.4526 27.8046 29.1606 25.984 30.408 24.6017C31.6554 23.1857 33.2231 22.1406 35.1111 21.4663C36.9991 20.792 38.9883 20.4549 41.0786 20.4549C42.6294 20.4549 44.2309 20.6403 45.8829 21.0111C47.3326 19.022 48.7317 17.3363 50.0803 15.954C51.4626 14.5717 52.7943 13.5097 54.0754 12.768C53.7383 12.768 53.3843 12.768 53.0134 12.768C52.6763 12.7343 52.3223 12.7174 51.9514 12.7174C48.9171 12.7174 45.866 12.9703 42.798 13.476C39.73 13.948 36.7463 14.6897 33.8469 15.7011C30.9474 16.7126 28.2334 18.0443 25.7049 19.6963C23.21 21.3146 21.0186 23.2531 19.1306 25.512C17.2426 27.7709 15.776 30.4006 14.7309 33.4011C13.9554 35.66 13.5677 37.8346 13.5677 39.9249C13.5677 42.2511 13.9891 44.4257 14.832 46.4486C15.7086 48.4714 16.9729 50.174 18.6249 51.5563C20.2769 52.9386 22.2491 53.8826 24.5417 54.3883ZM50.1309 22.5283C50.2994 21.7529 50.5017 21.0111 50.7377 20.3031C51.0074 19.5614 51.3109 18.8871 51.648 18.2803C52.1537 17.4037 52.8617 16.426 53.772 15.3471C54.6823 14.2346 55.6937 13.4423 56.8063 12.9703L55.8454 12.8691C54.6317 13.5097 53.3506 14.6054 52.002 16.1563C50.6871 17.6734 49.3554 19.494 48.0069 21.618C48.7823 21.854 49.4903 22.1574 50.1309 22.5283ZM35.718 37.9526L38.55 32.7943C39.73 30.6366 40.8931 28.6137 42.0394 26.7257C43.2194 24.8377 44.3657 23.1183 45.4783 21.5674C44.8714 21.4326 44.2646 21.3483 43.6577 21.3146C43.0509 21.2471 42.444 21.2134 41.8371 21.2134C39.9829 21.2134 38.2129 21.5169 36.5271 22.1237C34.8414 22.7306 33.4423 23.6914 32.3297 25.0063C31.2509 26.2874 30.6271 27.9731 30.4586 30.0634C30.3574 31.7829 30.7789 33.3169 31.7229 34.6654C32.7006 35.9803 34.0323 37.076 35.718 37.9526ZM46.0851 40.4811H47.5517C48.1249 37.9863 48.5126 35.4409 48.7149 32.8449C48.9171 30.2151 49.1869 27.9057 49.524 25.9166L49.9791 23.1351C49.642 22.9666 49.2711 22.798 48.8666 22.6294C48.4957 22.4271 48.108 22.2586 47.7034 22.1237C46.5571 23.978 45.4277 26.0177 44.3151 28.2429C43.2363 30.468 42.1406 32.7774 41.028 35.1711L39.1063 39.318C40.1514 39.6214 41.264 39.8911 42.444 40.1271C43.624 40.3631 44.8377 40.4811 46.0851 40.4811ZM45.8323 48.9771C47.0123 48.5726 48.2091 47.6454 49.4229 46.1957C50.6366 44.7123 51.9009 42.9423 53.2157 40.8857C52.8111 40.9194 52.4066 40.97 52.002 41.0374C51.5974 41.0711 51.1929 41.1049 50.7883 41.1386C50.35 42.5883 49.7263 43.9706 48.9171 45.2854C48.1417 46.6003 47.1134 47.8309 45.8323 48.9771ZM76.7836 51.2529C75.6373 51.2529 74.845 50.9326 74.4067 50.292C74.0022 49.6514 73.7999 48.8591 73.7999 47.9151C73.7999 46.9374 73.9684 45.9091 74.3056 44.8303C74.6427 43.7514 74.963 42.8917 75.2664 42.2511C76.3453 39.9923 77.8456 38.2729 79.7673 37.0929C81.7227 35.8791 83.7287 35.2723 85.7853 35.2723C86.055 35.2723 86.3247 35.2723 86.5944 35.2723C86.8979 35.2723 87.1844 35.306 87.4542 35.3734C88.1284 35.4746 88.4656 35.5589 88.4656 35.6263C88.4656 35.6937 88.2127 35.7611 87.707 35.8286C87.235 35.896 86.881 35.9297 86.645 35.9297C84.993 35.9297 83.5096 36.368 82.1947 37.2446C80.9136 38.1211 79.8179 39.2337 78.9076 40.5823C77.9973 41.9309 77.2893 43.3131 76.7836 44.7291C76.3116 46.1114 76.0756 47.3083 76.0756 48.3197C76.0756 48.9603 76.1767 49.4829 76.379 49.8874C76.615 50.292 76.9522 50.4943 77.3904 50.4943C77.8624 50.4943 78.4019 50.174 79.0087 49.5334C79.6156 48.8929 80.2056 48.1174 80.7787 47.2071C81.3519 46.2631 81.8744 45.3529 82.3464 44.4763C82.8184 43.566 83.1724 42.8749 83.4084 42.4029L85.583 37.8514C86.1562 37.7166 86.7293 37.5649 87.3024 37.3963C87.9093 37.194 88.4824 36.9749 89.0219 36.7389C88.4487 37.7166 87.8924 38.7449 87.353 39.8237C86.8473 40.9026 86.3247 41.9646 85.7853 43.0097C85.3807 43.7851 84.9762 44.6954 84.5716 45.7406C84.2007 46.7857 84.0153 47.7297 84.0153 48.5726V48.7749C84.0153 49.0446 84.049 49.348 84.1164 49.6851C84.1839 49.9886 84.3693 50.1403 84.6727 50.1403C85.0436 50.1403 85.5156 49.9211 86.0887 49.4829C86.6619 49.0109 87.0664 48.6569 87.3024 48.4209C88.3813 47.342 89.3084 46.1451 90.0839 44.8303C90.893 43.5154 91.6347 42.1837 92.309 40.8351C92.3764 40.7677 92.427 40.734 92.4607 40.734C92.7304 40.734 92.8316 40.8689 92.7642 41.1386C92.7642 41.1386 92.6799 41.2903 92.5113 41.5937C92.3764 41.8971 92.2922 42.0657 92.2584 42.0994C91.6179 43.2794 90.9773 44.4089 90.3367 45.4877C89.6962 46.5666 88.9376 47.5949 88.061 48.5726C87.5216 49.112 86.8642 49.6851 86.0887 50.292C85.3133 50.8989 84.5379 51.2023 83.7624 51.2023C83.0207 51.2023 82.4982 50.9157 82.1947 50.3426C81.8913 49.7357 81.7396 49.0614 81.7396 48.3197C81.7396 47.8477 81.7733 47.3926 81.8407 46.9543C81.9419 46.4823 82.043 46.0777 82.1442 45.7406C81.9082 46.3474 81.4867 47.0891 80.8799 47.9657C80.3067 48.8423 79.6493 49.6177 78.9076 50.292C78.1996 50.9326 77.4916 51.2529 76.7836 51.2529ZM95.7167 51.2529C94.3007 51.2529 93.5927 50.4606 93.5927 48.876C93.5927 48.2691 93.7107 47.5443 93.9467 46.7014C94.1827 45.8586 94.5535 44.9314 95.0592 43.92C95.3289 43.3131 95.6998 42.5883 96.1718 41.7454C96.6438 40.8689 97.0652 40.0091 97.4361 39.1663C97.8407 38.3234 98.0429 37.6491 98.0429 37.1434C98.0429 36.6377 97.7732 36.3849 97.2338 36.3849C96.9978 36.3849 96.6944 36.4523 96.3235 36.5871C95.9527 36.6883 95.4469 36.8231 94.8064 36.9917C94.5367 37.666 94.0984 38.61 93.4915 39.8237C92.9184 41.0037 92.2778 42.2174 91.5698 43.4649C90.8618 44.7123 90.1875 45.7911 89.5469 46.7014C89.5469 46.7014 89.5301 46.7183 89.4964 46.752C89.4964 46.752 89.4627 46.752 89.3952 46.752C89.3278 46.752 89.2267 46.7351 89.0918 46.7014C88.9907 46.634 88.9569 46.5834 88.9907 46.5497C89.5301 45.7743 90.0864 44.8809 90.6595 43.8694C91.2327 42.8243 91.7721 41.796 92.2778 40.7846C92.8172 39.7731 93.2555 38.9134 93.5927 38.2054C93.9635 37.4637 94.1658 37.0254 94.1995 36.8906C93.6938 36.722 93.2892 36.3343 92.9858 35.7274C92.7161 35.0869 92.5812 34.4463 92.5812 33.8057C92.5812 33.2326 92.7161 32.7437 92.9858 32.3391C93.2555 31.9346 93.6601 31.7323 94.1995 31.7323C94.6041 31.7323 94.8738 31.9514 95.0087 32.3897C95.1772 32.7943 95.2615 33.2831 95.2615 33.8563C95.2615 34.598 95.1772 35.3397 95.0087 36.0814C95.0087 36.0814 95.1941 36.0477 95.5649 35.9803C95.9358 35.9129 96.3741 35.8623 96.8798 35.8286C97.3855 35.7611 97.8238 35.7274 98.1947 35.7274C99.3072 35.7274 99.8635 36.2669 99.8635 37.3457C99.8635 38.02 99.6781 38.8966 99.3072 39.9754C98.9364 41.0206 98.4644 42.2343 97.8912 43.6166C96.7449 46.3474 96.1718 48.2691 96.1718 49.3817C96.1718 50.056 96.3909 50.3931 96.8292 50.3931C97.3687 50.3931 98.1272 49.9549 99.1049 49.0783C100.083 48.2017 100.976 47.106 101.785 45.7911C102.628 44.4426 103.656 42.6389 104.87 40.38C104.904 40.3126 104.954 40.2789 105.022 40.2789C105.123 40.2789 105.207 40.3294 105.275 40.4306C105.376 40.498 105.41 40.5654 105.376 40.6329C103.522 44.1391 101.903 46.7857 100.521 48.5726C99.1387 50.3594 97.5372 51.2529 95.7167 51.2529ZM112.513 32.2886C112.041 32.2886 111.637 32.1369 111.3 31.8334C110.996 31.4963 110.845 31.1086 110.845 30.6703C110.845 30.0971 111.03 29.6083 111.401 29.2037C111.805 28.7991 112.277 28.5969 112.817 28.5969C113.289 28.5969 113.693 28.7654 114.031 29.1026C114.368 29.4397 114.536 29.8611 114.536 30.3669C114.536 30.9063 114.334 31.3614 113.929 31.7323C113.525 32.1031 113.053 32.2886 112.513 32.2886ZM106.951 51.2529C106.344 51.2529 105.855 51.0337 105.484 50.5954C105.147 50.1234 104.978 49.5166 104.978 48.7749C104.978 47.8309 105.164 46.8194 105.535 45.7406C105.939 44.6617 106.394 43.5829 106.9 42.504C107.439 41.3914 107.911 40.3463 108.316 39.3686C108.485 38.8966 108.636 38.4751 108.771 38.1043C108.906 37.7334 108.973 37.43 108.973 37.194C108.973 36.8569 108.822 36.6883 108.518 36.6883C108.114 36.6883 107.709 36.9411 107.305 37.4469C106.9 37.9526 106.529 38.5257 106.192 39.1663C105.889 39.7731 105.636 40.262 105.433 40.6329C104.928 41.6106 104.371 42.622 103.765 43.6671C103.191 44.7123 102.601 45.6731 101.995 46.5497C101.995 46.5834 101.961 46.6003 101.893 46.6003C101.826 46.6003 101.742 46.5497 101.641 46.4486C101.539 46.3474 101.506 46.28 101.539 46.2463C102.18 45.336 102.77 44.3751 103.309 43.3637C103.883 42.3186 104.405 41.324 104.877 40.38C105.214 39.672 105.585 38.9471 105.99 38.2054C106.428 37.43 106.934 36.7894 107.507 36.2837C108.08 35.7443 108.737 35.4746 109.479 35.4746C109.816 35.4746 110.204 35.5589 110.642 35.7274C111.148 35.9297 111.401 36.368 111.401 37.0423C111.401 37.3794 111.333 37.784 111.199 38.256C111.097 38.6943 110.946 39.2 110.743 39.7731C110.305 40.9194 109.816 42.0826 109.277 43.2626C108.771 44.4089 108.299 45.572 107.861 46.752C107.524 47.6623 107.355 48.4714 107.355 49.1794C107.355 49.9549 107.608 50.3426 108.114 50.3426C108.586 50.3426 109.311 49.9211 110.288 49.0783C111.266 48.2017 112.176 47.106 113.019 45.7911C113.862 44.4426 114.873 42.6389 116.053 40.38C116.087 40.3126 116.155 40.2789 116.256 40.2789C116.323 40.2789 116.391 40.3294 116.458 40.4306C116.559 40.498 116.593 40.5654 116.559 40.6329C114.772 44.1054 113.171 46.752 111.755 48.5726C110.339 50.3594 108.737 51.2529 106.951 51.2529ZM116.342 51.2529C115.196 51.2529 114.403 50.9326 113.965 50.292C113.56 49.6514 113.358 48.8591 113.358 47.9151C113.358 46.9374 113.527 45.9091 113.864 44.8303C114.201 43.7514 114.521 42.8917 114.825 42.2511C115.904 39.9923 117.404 38.2729 119.326 37.0929C121.281 35.8791 123.287 35.2723 125.344 35.2723C125.613 35.2723 125.883 35.2723 126.153 35.2723C126.456 35.2723 126.743 35.306 127.012 35.3734C127.687 35.4746 128.024 35.5589 128.024 35.6263C128.024 35.6937 127.771 35.7611 127.265 35.8286C126.793 35.896 126.439 35.9297 126.203 35.9297C124.551 35.9297 123.068 36.368 121.753 37.2446C120.472 38.1211 119.376 39.2337 118.466 40.5823C117.556 41.9309 116.848 43.3131 116.342 44.7291C115.87 46.1114 115.634 47.3083 115.634 48.3197C115.634 48.9603 115.735 49.4829 115.937 49.8874C116.173 50.292 116.51 50.4943 116.949 50.4943C117.421 50.4943 117.96 50.174 118.567 49.5334C119.174 48.8929 119.764 48.1174 120.337 47.2071C120.91 46.2631 121.433 45.3529 121.905 44.4763C122.377 43.566 122.731 42.8749 122.967 42.4029L125.141 37.8514C125.714 37.7166 126.288 37.5649 126.861 37.3963C127.468 37.194 128.041 36.9749 128.58 36.7389C128.007 37.7166 127.451 38.7449 126.911 39.8237C126.406 40.9026 125.883 41.9646 125.344 43.0097C124.939 43.7851 124.534 44.6954 124.13 45.7406C123.759 46.7857 123.574 47.7297 123.574 48.5726V48.7749C123.574 49.0446 123.607 49.348 123.675 49.6851C123.742 49.9886 123.928 50.1403 124.231 50.1403C124.602 50.1403 125.074 49.9211 125.647 49.4829C126.22 49.0109 126.625 48.6569 126.861 48.4209C127.94 47.342 128.867 46.1451 129.642 44.8303C130.451 43.5154 131.193 42.1837 131.867 40.8351C131.935 40.7677 131.985 40.734 132.019 40.734C132.289 40.734 132.39 40.8689 132.322 41.1386C132.322 41.1386 132.238 41.2903 132.07 41.5937C131.935 41.8971 131.85 42.0657 131.817 42.0994C131.176 43.2794 130.536 44.4089 129.895 45.4877C129.254 46.5666 128.496 47.5949 127.619 48.5726C127.08 49.112 126.422 49.6851 125.647 50.292C124.872 50.8989 124.096 51.2023 123.321 51.2023C122.579 51.2023 122.056 50.9157 121.753 50.3426C121.45 49.7357 121.298 49.0614 121.298 48.3197C121.298 47.8477 121.332 47.3926 121.399 46.9543C121.5 46.4823 121.601 46.0777 121.702 45.7406C121.466 46.3474 121.045 47.0891 120.438 47.9657C119.865 48.8423 119.208 49.6177 118.466 50.292C117.758 50.9326 117.05 51.2529 116.342 51.2529Z" fill="black"/>
<path d="M112.536 97.9665C110.295 97.9665 108.275 97.5075 106.476 96.5893C104.713 95.6711 103.299 94.3489 102.234 92.6227C101.205 90.8965 100.691 88.8031 100.691 86.3424C100.691 86.0485 100.691 85.7547 100.691 85.4609C100.728 85.1304 100.765 84.8182 100.801 84.5244C99.1853 83.0185 98.01 81.3842 97.2755 79.6213C96.5409 77.8216 96.1736 76.0404 96.1736 74.2775C96.1736 72.5513 96.4675 70.8802 97.0551 69.2642C97.6795 67.6115 98.4875 66.1607 99.4791 64.912L99.5342 64.8018L99.0384 63.9755C98.2304 62.6165 97.8264 61.2576 97.8264 59.8987C97.8264 58.5398 98.212 57.3095 98.9833 56.2076C99.7913 55.0691 100.893 54.1693 102.289 53.5082C103.721 52.8471 105.374 52.5165 107.247 52.5165C108.9 52.5165 110.718 52.8104 112.701 53.398C114.684 53.9856 116.741 54.9773 118.871 56.3729C119.275 56.63 119.679 56.9055 120.083 57.1993C120.524 57.4931 120.946 57.8053 121.35 58.1358C122.709 57.3278 124.068 56.5933 125.427 55.9322C126.786 55.2344 128.145 54.6467 129.504 54.1693C131.413 53.4347 133.14 52.9205 134.682 52.6267C136.261 52.2962 137.657 52.1309 138.869 52.1309C141.146 52.1309 142.836 52.6267 143.937 53.6184C145.076 54.5733 145.645 55.8036 145.645 57.3095C145.645 58.6316 145.223 60.0824 144.378 61.6616C143.57 63.2042 142.34 64.7651 140.687 66.3444C139.034 67.8869 136.996 69.3009 134.572 70.5864C133.36 71.2107 132.13 71.7616 130.881 72.2391C130.954 72.5696 131.028 72.9185 131.101 73.2858C131.175 73.6164 131.23 73.9653 131.267 74.3325C131.303 74.5896 131.322 74.8651 131.322 75.1589C131.358 75.4527 131.377 75.7465 131.377 76.0404C131.377 78.1338 130.899 80.0253 129.944 81.7147C129.026 83.4042 127.759 84.8365 126.143 86.0118C124.564 87.1871 122.746 88.1053 120.689 88.7664C118.669 89.3907 116.576 89.7029 114.409 89.7029C112.793 89.7029 111.158 89.5193 109.506 89.152C107.89 88.7847 106.329 88.1971 104.823 87.3891C104.786 90.4742 105.502 92.8431 106.971 94.4958C108.441 96.1853 110.461 97.03 113.031 97.03C114.39 97.03 115.896 96.7545 117.549 96.2036C119.202 95.6895 120.928 94.9182 122.727 93.8898C124.454 92.8982 126.07 91.778 127.575 90.5293C129.118 89.2438 130.495 87.94 131.707 86.6178C132.956 85.2589 133.929 83.9735 134.627 82.7615C134.701 82.6145 134.811 82.5411 134.958 82.5411C135.068 82.5411 135.16 82.5962 135.233 82.7064C135.343 82.8165 135.362 82.9635 135.288 83.1471C134.076 85.2773 132.405 87.3891 130.275 89.4825C128.181 91.5393 125.868 93.3022 123.333 94.7713C121.497 95.8364 119.661 96.626 117.824 97.1402C115.988 97.6911 114.225 97.9665 112.536 97.9665ZM130.661 71.4127C131.285 71.1556 131.873 70.8985 132.423 70.6415C132.974 70.3844 133.507 70.1089 134.021 69.8151C137.4 67.942 139.971 65.8485 141.734 63.5347C143.497 61.2209 144.378 59.1642 144.378 57.3645C144.378 56.0791 143.937 55.0507 143.056 54.2795C142.211 53.4715 140.871 53.0675 139.034 53.0675C137.896 53.0675 136.555 53.2695 135.013 53.6735C133.507 54.0407 131.781 54.6467 129.834 55.4915C127.447 56.4831 125.115 57.7869 122.838 59.4029C124.601 60.9822 126.18 62.8185 127.575 64.912C128.971 66.9687 129.999 69.1356 130.661 71.4127ZM107.082 70.3109C108.808 68.1807 110.791 66.1424 113.031 64.1958C115.309 62.2125 117.677 60.4313 120.138 58.852L118.43 57.6951C116.557 56.4096 114.703 55.4915 112.866 54.9405C111.067 54.3896 109.377 54.1142 107.798 54.1142C105.411 54.1142 103.427 54.6651 101.848 55.7669C100.305 56.8687 99.5342 58.3378 99.5342 60.1742C99.5342 61.2393 99.8647 62.4145 100.526 63.7C102.546 61.68 104.768 60.67 107.192 60.67C107.706 60.67 108.202 60.7251 108.679 60.8353C109.157 60.9087 109.634 61.0556 110.112 61.276C110.259 61.3127 110.332 61.4045 110.332 61.5515C110.332 61.6616 110.277 61.7535 110.167 61.8269C110.057 61.8636 109.91 61.8453 109.726 61.7718C109.065 61.5147 108.312 61.3862 107.467 61.3862C105.043 61.3862 102.876 62.4329 100.967 64.5264L101.077 64.6916C102.656 67.0422 104.658 68.9153 107.082 70.3109ZM119.587 73.396C123.15 73.396 126.584 72.8267 129.889 71.6882C129.228 69.4111 128.163 67.2993 126.694 65.3527C125.262 63.3695 123.627 61.6249 121.791 60.1191C119.587 61.6984 117.475 63.4796 115.455 65.4629C113.472 67.4462 111.728 69.558 110.222 71.7984C111.691 72.3493 113.215 72.7533 114.794 73.0104C116.374 73.2675 117.971 73.396 119.587 73.396ZM101.132 82.3207C101.279 81.6596 101.444 80.9802 101.628 80.2824C101.848 79.5845 102.087 78.8684 102.344 78.1338C103.262 75.82 104.603 73.5245 106.365 71.2475C105.117 70.5496 103.96 69.7416 102.895 68.8235C101.866 67.9053 100.93 66.8585 100.085 65.6833L99.8647 65.9587C98.2487 67.9787 97.4407 70.3844 97.4407 73.1756C97.4407 74.7182 97.7345 76.2791 98.3222 77.8584C98.9098 79.4376 99.8464 80.9251 101.132 82.3207ZM115.621 88.4358C118.265 88.4358 120.726 87.94 123.003 86.9484C125.28 85.9567 127.098 84.5427 128.457 82.7064C129.853 80.87 130.55 78.6847 130.55 76.1505C130.55 75.7465 130.532 75.3425 130.495 74.9385C130.459 74.5345 130.403 74.1122 130.33 73.6715L130.11 72.5145C126.657 73.6898 123.021 74.2775 119.202 74.2775C117.549 74.2775 115.915 74.1489 114.299 73.8918C112.683 73.6347 111.122 73.2491 109.616 72.7349C108.183 74.9753 107.045 77.3442 106.2 79.8416C105.906 80.87 105.649 81.8433 105.429 82.7615C105.209 83.6796 105.062 84.5611 104.988 85.4058C105.135 85.516 105.282 85.6262 105.429 85.7364C105.576 85.8098 105.723 85.8833 105.87 85.9567C107.449 86.8015 109.065 87.4258 110.718 87.8298C112.37 88.2338 114.005 88.4358 115.621 88.4358ZM139.389 94.4958C138.691 94.4958 138.066 94.2204 137.515 93.6695C136.965 93.0818 136.689 92.0535 136.689 90.5844C136.689 89.5927 136.891 88.3073 137.295 86.728C137.699 85.1487 138.232 83.4042 138.893 81.4944C139.591 79.5845 140.343 77.638 141.151 75.6547C141.996 73.6347 142.841 71.7249 143.686 69.9253C144.567 68.0889 145.375 66.4545 146.11 65.0222C146.881 63.5898 147.542 62.5064 148.093 61.7718C149.048 60.4864 150.021 59.5131 151.013 58.852C152.041 58.1542 152.923 57.8053 153.657 57.8053C154.869 57.8053 155.475 58.5582 155.475 60.064C155.475 60.872 155.236 61.9187 154.759 63.2042C154.281 64.4529 153.492 65.9587 152.39 67.7216C151.582 69.0071 150.664 70.366 149.635 71.7984C148.644 73.194 147.634 74.5529 146.605 75.8751C145.577 77.1973 144.585 78.3909 143.631 79.456C142.712 80.4844 141.923 81.2924 141.262 81.88C141.262 81.88 141.133 82.2473 140.876 82.9818C140.619 83.6796 140.307 84.5795 139.939 85.6813C139.609 86.7464 139.315 87.8482 139.058 88.9867C138.801 90.1253 138.672 91.1169 138.672 91.9616C138.672 92.5125 138.746 92.9716 138.893 93.3389C139.076 93.6695 139.352 93.8347 139.719 93.8347C140.27 93.8347 141.023 93.4675 141.978 92.7329C142.565 92.2922 143.135 91.778 143.686 91.1904C144.237 90.566 144.714 89.96 145.118 89.3724C145.559 88.7847 145.853 88.3624 145.999 88.1053C146.33 87.5911 146.716 86.93 147.156 86.122C147.634 85.314 148.075 84.5611 148.479 83.8633C148.883 83.1287 149.121 82.6696 149.195 82.486C149.268 82.4125 149.323 82.3758 149.36 82.3758C149.433 82.3758 149.525 82.4309 149.635 82.5411C149.746 82.6145 149.764 82.688 149.691 82.7615C148.809 84.5978 147.983 86.1587 147.211 87.4442C146.477 88.7296 145.724 89.8315 144.953 90.7496C144.181 91.6311 143.318 92.4758 142.363 93.2838C141.959 93.6511 141.482 93.9449 140.931 94.1653C140.417 94.3856 139.903 94.4958 139.389 94.4958ZM141.647 80.668C142.529 79.6396 143.575 78.3542 144.787 76.8116C145.999 75.2324 147.23 73.5796 148.479 71.8535C149.727 70.1273 150.811 68.5113 151.729 67.0055C152.647 65.4996 153.29 64.1775 153.657 63.0389C154.061 61.9004 154.263 60.9822 154.263 60.2844C154.263 59.2927 153.951 58.7969 153.327 58.7969C152.923 58.7969 152.372 59.1275 151.674 59.7885C151.013 60.4129 150.297 61.4229 149.525 62.8185C148.974 63.8102 148.368 65.0038 147.707 66.3995C147.046 67.7951 146.385 69.2642 145.724 70.8067C145.063 72.3493 144.439 73.8184 143.851 75.214C143.263 76.5729 142.767 77.7482 142.363 78.7398C141.996 79.7315 141.757 80.3742 141.647 80.668ZM149.55 94.2755C148.302 94.2755 147.438 93.9265 146.961 93.2287C146.52 92.5309 146.3 91.6678 146.3 90.6395C146.3 89.5744 146.484 88.4542 146.851 87.2789C147.218 86.1036 147.567 85.1671 147.898 84.4693C149.073 82.0085 150.707 80.1355 152.801 78.85C154.931 77.5278 157.116 76.8667 159.356 76.8667C159.65 76.8667 159.944 76.8667 160.238 76.8667C160.568 76.8667 160.881 76.9035 161.174 76.9769C161.909 77.0871 162.276 77.1789 162.276 77.2524C162.276 77.3258 162.001 77.3993 161.45 77.4727C160.936 77.5462 160.55 77.5829 160.293 77.5829C158.493 77.5829 156.877 78.0604 155.445 79.0153C154.049 79.9702 152.856 81.1822 151.864 82.6513C150.872 84.1204 150.101 85.6262 149.55 87.1687C149.036 88.6745 148.779 89.9784 148.779 91.0802C148.779 91.778 148.889 92.3473 149.11 92.788C149.367 93.2287 149.734 93.4491 150.211 93.4491C150.726 93.4491 151.313 93.1002 151.974 92.4024C152.635 91.7045 153.278 90.8598 153.902 89.8682C154.527 88.8398 155.096 87.8482 155.61 86.8933C156.124 85.9016 156.51 85.1487 156.767 84.6345L159.136 79.6764C159.76 79.5295 160.385 79.3642 161.009 79.1805C161.67 78.9602 162.295 78.7215 162.882 78.4644C162.258 79.5295 161.652 80.6496 161.064 81.8249C160.513 83.0002 159.944 84.1571 159.356 85.2956C158.916 86.1404 158.475 87.132 158.034 88.2705C157.63 89.4091 157.428 90.4375 157.428 91.3556V91.576C157.428 91.8698 157.465 92.2004 157.538 92.5676C157.612 92.8982 157.814 93.0635 158.144 93.0635C158.548 93.0635 159.063 92.8247 159.687 92.3473C160.311 91.8331 160.752 91.4475 161.009 91.1904C162.184 90.0151 163.194 88.7113 164.039 87.2789C164.921 85.8465 165.729 84.3958 166.463 82.9267C166.537 82.8533 166.592 82.8165 166.628 82.8165C166.922 82.8165 167.032 82.9635 166.959 83.2573C166.959 83.2573 166.867 83.4225 166.684 83.7531C166.537 84.0836 166.445 84.2673 166.408 84.304C165.71 85.5895 165.012 86.8198 164.315 87.9951C163.617 89.1704 162.79 90.2905 161.836 91.3556C161.248 91.9433 160.532 92.5676 159.687 93.2287C158.842 93.8898 157.998 94.2204 157.153 94.2204C156.345 94.2204 155.776 93.9082 155.445 93.2838C155.114 92.6227 154.949 91.8882 154.949 91.0802C154.949 90.566 154.986 90.0702 155.059 89.5927C155.17 89.0785 155.28 88.6378 155.39 88.2705C155.133 88.9316 154.674 89.7396 154.013 90.6945C153.388 91.6495 152.672 92.4942 151.864 93.2287C151.093 93.9265 150.322 94.2755 149.55 94.2755ZM170.175 94.2755C168.633 94.2755 167.862 93.4124 167.862 91.6862C167.862 91.0251 167.99 90.2355 168.247 89.3173C168.504 88.3991 168.908 87.3891 169.459 86.2873C169.753 85.6262 170.157 84.8365 170.671 83.9184C171.185 82.9635 171.644 82.0269 172.048 81.1087C172.489 80.1905 172.71 79.456 172.71 78.9051C172.71 78.3542 172.416 78.0787 171.828 78.0787C171.571 78.0787 171.24 78.1522 170.836 78.2991C170.432 78.4093 169.882 78.5562 169.184 78.7398C168.89 79.4744 168.412 80.5027 167.751 81.8249C167.127 83.1104 166.429 84.4325 165.658 85.7915C164.887 87.1504 164.152 88.3256 163.454 89.3173C163.454 89.3173 163.436 89.3356 163.399 89.3724C163.399 89.3724 163.362 89.3724 163.289 89.3724C163.216 89.3724 163.105 89.354 162.958 89.3173C162.848 89.2438 162.812 89.1887 162.848 89.152C163.436 88.3073 164.042 87.334 164.666 86.2322C165.291 85.0936 165.878 83.9735 166.429 82.8716C167.017 81.7698 167.494 80.8333 167.862 80.062C168.266 79.254 168.486 78.7765 168.523 78.6296C167.972 78.446 167.531 78.0236 167.2 77.3625C166.907 76.6647 166.76 75.9669 166.76 75.2691C166.76 74.6447 166.907 74.1122 167.2 73.6715C167.494 73.2307 167.935 73.0104 168.523 73.0104C168.963 73.0104 169.257 73.2491 169.404 73.7265C169.588 74.1673 169.68 74.6998 169.68 75.3242C169.68 76.1322 169.588 76.9402 169.404 77.7482C169.404 77.7482 169.606 77.7115 170.01 77.638C170.414 77.5645 170.892 77.5095 171.442 77.4727C171.993 77.3993 172.471 77.3625 172.875 77.3625C174.087 77.3625 174.693 77.9502 174.693 79.1255C174.693 79.86 174.491 80.8149 174.087 81.9902C173.683 83.1287 173.169 84.4509 172.544 85.9567C171.296 88.9316 170.671 91.0251 170.671 92.2371C170.671 92.9716 170.91 93.3389 171.387 93.3389C171.975 93.3389 172.801 92.8615 173.866 91.9065C174.932 90.9516 175.905 89.758 176.786 88.3256C177.704 86.8565 178.825 84.8916 180.147 82.4309C180.184 82.3575 180.239 82.3207 180.312 82.3207C180.422 82.3207 180.514 82.3758 180.588 82.486C180.698 82.5595 180.734 82.6329 180.698 82.7064C178.678 86.526 176.915 89.4091 175.409 91.3556C173.903 93.3022 172.159 94.2755 170.175 94.2755ZM180.485 94.2755C179.236 94.2755 178.373 93.9265 177.896 93.2287C177.455 92.5309 177.235 91.6678 177.235 90.6395C177.235 89.5744 177.418 88.4542 177.786 87.2789C178.153 86.1036 178.502 85.1671 178.832 84.4693C180.008 82.0085 181.642 80.1355 183.735 78.85C185.866 77.5278 188.051 76.8667 190.291 76.8667C190.585 76.8667 190.879 76.8667 191.173 76.8667C191.503 76.8667 191.815 76.9035 192.109 76.9769C192.844 77.0871 193.211 77.1789 193.211 77.2524C193.211 77.3258 192.936 77.3993 192.385 77.4727C191.871 77.5462 191.485 77.5829 191.228 77.5829C189.428 77.5829 187.812 78.0604 186.38 79.0153C184.984 79.9702 183.791 81.1822 182.799 82.6513C181.807 84.1204 181.036 85.6262 180.485 87.1687C179.971 88.6745 179.714 89.9784 179.714 91.0802C179.714 91.778 179.824 92.3473 180.044 92.788C180.301 93.2287 180.669 93.4491 181.146 93.4491C181.66 93.4491 182.248 93.1002 182.909 92.4024C183.57 91.7045 184.213 90.8598 184.837 89.8682C185.462 88.8398 186.031 87.8482 186.545 86.8933C187.059 85.9016 187.445 85.1487 187.702 84.6345L190.071 79.6764C190.695 79.5295 191.32 79.3642 191.944 79.1805C192.605 78.9602 193.229 78.7215 193.817 78.4644C193.193 79.5295 192.587 80.6496 191.999 81.8249C191.448 83.0002 190.879 84.1571 190.291 85.2956C189.851 86.1404 189.41 87.132 188.969 88.2705C188.565 89.4091 188.363 90.4375 188.363 91.3556V91.576C188.363 91.8698 188.4 92.2004 188.473 92.5676C188.547 92.8982 188.749 93.0635 189.079 93.0635C189.483 93.0635 189.997 92.8247 190.622 92.3473C191.246 91.8331 191.687 91.4475 191.944 91.1904C193.119 90.0151 194.129 88.7113 194.974 87.2789C195.855 85.8465 196.663 84.3958 197.398 82.9267C197.471 82.8533 197.527 82.8165 197.563 82.8165C197.857 82.8165 197.967 82.9635 197.894 83.2573C197.894 83.2573 197.802 83.4225 197.618 83.7531C197.471 84.0836 197.38 84.2673 197.343 84.304C196.645 85.5895 195.947 86.8198 195.249 87.9951C194.552 89.1704 193.725 90.2905 192.77 91.3556C192.183 91.9433 191.467 92.5676 190.622 93.2287C189.777 93.8898 188.932 94.2204 188.088 94.2204C187.28 94.2204 186.71 93.9082 186.38 93.2838C186.049 92.6227 185.884 91.8882 185.884 91.0802C185.884 90.566 185.921 90.0702 185.994 89.5927C186.104 89.0785 186.215 88.6378 186.325 88.2705C186.068 88.9316 185.609 89.7396 184.947 90.6945C184.323 91.6495 183.607 92.4942 182.799 93.2287C182.028 93.9265 181.256 94.2755 180.485 94.2755Z" fill="black"/>
<path d="M14.4709 116.247C14.4003 116.2 14.365 116.153 14.365 116.106C14.365 116.059 14.4003 116.012 14.4709 115.965C14.5179 115.894 14.5649 115.847 14.612 115.824C15.0823 115.683 15.5174 115.53 15.9172 115.365C16.3405 115.2 16.7403 114.965 17.1166 114.659C17.2342 114.542 17.5634 114.083 18.1043 113.284C18.6452 112.461 19.3272 111.391 20.1504 110.074C20.9735 108.757 21.8789 107.287 22.8666 105.664C23.8779 104.041 24.8892 102.36 25.9004 100.619L23.9955 101.96C23.6192 102.242 23.2664 102.536 22.9372 102.842C22.6315 103.124 22.2552 103.442 21.8084 103.794C21.6672 103.912 21.4438 103.971 21.1381 103.971C20.9029 103.971 20.6795 103.924 20.4678 103.83C20.2562 103.736 20.1504 103.641 20.1504 103.547C20.1504 103.453 20.2444 103.371 20.4326 103.3C20.7148 103.183 21.1616 102.924 21.7731 102.524C22.4081 102.101 23.1018 101.619 23.8544 101.078C24.6069 100.537 25.336 100.02 26.0415 99.5259C26.7471 99.0085 27.335 98.5852 27.8053 98.256C28.2992 97.9267 28.5697 97.7621 28.6167 97.7621C28.6873 97.7856 28.7225 97.8914 28.7225 98.0796C28.7225 98.3147 28.6402 98.6558 28.4756 99.1026C28.3345 99.5494 28.1111 100.043 27.8053 100.584C27.6878 100.796 27.3938 101.29 26.9234 102.066C26.4766 102.818 25.9239 103.724 25.2654 104.782C24.6069 105.84 23.9249 106.946 23.2194 108.098C22.5139 109.227 21.8554 110.297 21.2439 111.308C20.6325 112.319 20.1268 113.143 19.727 113.778C19.3508 114.413 19.1626 114.754 19.1626 114.801C19.2097 115.059 19.3625 115.271 19.6212 115.436C19.8799 115.577 20.1268 115.683 20.362 115.753C20.5972 115.8 20.7148 115.835 20.7148 115.859C20.8089 115.929 20.8559 116 20.8559 116.071C20.8794 116.141 20.8324 116.188 20.7148 116.212C20.4091 116.165 20.068 116.141 19.6918 116.141C19.3155 116.141 18.9274 116.141 18.5276 116.141C17.634 116.141 16.7756 116.153 15.9525 116.176C15.1529 116.223 14.659 116.247 14.4709 116.247ZM30.3786 118.434C28.7088 118.434 27.4859 117.999 26.7098 117.129C25.9573 116.259 25.581 115.247 25.581 114.095C25.581 113.107 25.8279 112.131 26.3218 111.167C26.8392 110.179 27.5682 109.356 28.5089 108.698C29.4496 108.039 30.555 107.71 31.8249 107.71C32.1071 107.71 32.4129 107.781 32.7421 107.922C33.0949 108.039 33.4006 108.251 33.6593 108.557C33.918 108.839 34.0473 109.215 34.0473 109.686C34.0473 109.897 34.0121 110.144 33.9415 110.426C33.8945 110.614 33.7886 110.732 33.624 110.779C33.4829 110.826 33.4359 110.744 33.4829 110.532C33.577 110.273 33.624 110.027 33.624 109.791C33.624 109.321 33.4594 108.968 33.1302 108.733C32.8244 108.474 32.4717 108.333 32.0719 108.31C31.0606 108.239 30.1787 108.498 29.4261 109.086C28.6736 109.674 28.0856 110.426 27.6623 111.344C27.2625 112.237 27.0626 113.143 27.0626 114.06C27.0626 115.095 27.3331 116 27.874 116.776C28.4384 117.552 29.3321 117.94 30.555 117.94C32.0366 117.94 33.3536 117.67 34.5059 117.129C35.6818 116.588 36.6931 115.871 37.5397 114.977C38.3863 114.083 39.0448 113.084 39.5152 111.978C40.0091 110.85 40.303 109.721 40.3971 108.592C40.5147 106.969 40.1502 105.793 39.3035 105.064C38.4804 104.312 37.4692 103.935 36.2698 103.935C34.9057 103.935 33.6005 104.312 32.3541 105.064C32.1895 105.064 32.0013 104.97 31.7897 104.782C31.578 104.57 31.4134 104.371 31.2958 104.182C31.2017 103.971 31.2135 103.865 31.3311 103.865C31.3781 103.794 31.531 103.583 31.7897 103.23C32.0719 102.877 32.4011 102.454 32.7774 101.96C33.1772 101.466 33.5652 100.972 33.9415 100.478C34.3178 99.961 34.647 99.4906 34.9293 99.0673C35.235 98.644 35.4349 98.35 35.529 98.1854C35.529 98.1854 35.5525 98.1972 35.5995 98.2207C35.6701 98.2442 35.8112 98.3147 36.0228 98.4323C36.3286 98.597 36.6696 98.6793 37.0458 98.6793C37.3516 98.6793 37.6455 98.644 37.9277 98.5734C38.2335 98.4794 38.5039 98.3853 38.7391 98.2912C39.5622 98.0561 40.4677 97.8091 41.4554 97.5504C42.4431 97.2682 43.3838 97.1271 44.2775 97.1271C44.6303 97.1271 44.983 97.1624 45.3358 97.2329C45.8297 97.327 46.2177 97.5622 46.4999 97.9385C46.7821 98.2912 46.9232 98.7028 46.9232 99.1731C46.9232 99.2672 46.9115 99.3495 46.888 99.4201C46.888 99.4906 46.8762 99.5729 46.8527 99.667C46.8057 99.9022 46.6881 100.126 46.4999 100.337C46.3353 100.549 46.1589 100.714 45.9708 100.831C45.8767 100.902 45.7944 100.937 45.7238 100.937C45.6298 100.937 45.5827 100.878 45.5827 100.761C45.5827 100.643 45.6533 100.467 45.7944 100.231C45.8649 100.114 45.9002 100.02 45.9002 99.9492C45.9002 99.6905 45.7474 99.4436 45.4416 99.2084C45.1359 98.9497 44.7831 98.7969 44.3833 98.7498C44.2187 98.7263 44.0423 98.7145 43.8542 98.7145C43.666 98.691 43.4779 98.6793 43.2898 98.6793C42.4431 98.6793 41.5965 98.7616 40.7499 98.9262C39.9032 99.0908 39.0684 99.2084 38.2452 99.279C38.0806 99.3025 37.9042 99.326 37.7161 99.3495C37.5515 99.3495 37.3751 99.3495 37.1869 99.3495C37.0694 99.3495 36.94 99.3495 36.7989 99.3495C36.6578 99.326 36.5285 99.3025 36.4109 99.279C36.3403 99.279 36.1404 99.4906 35.8112 99.9139C35.5054 100.314 35.1644 100.796 34.7881 101.36C34.4119 101.901 34.0591 102.407 33.7299 102.877C33.4241 103.348 33.236 103.653 33.1654 103.794C33.7063 103.559 34.259 103.395 34.8234 103.3C35.4114 103.183 35.964 103.124 36.4814 103.124C37.6103 103.124 38.6333 103.348 39.5505 103.794C40.4912 104.218 41.2202 104.829 41.7376 105.629C42.2785 106.428 42.4902 107.393 42.3726 108.521C42.255 109.603 41.914 110.72 41.3496 111.873C40.7851 113.025 39.9973 114.107 38.986 115.118C37.9748 116.106 36.7519 116.905 35.3173 117.517C33.8827 118.128 32.2365 118.434 30.3786 118.434ZM48.0664 124.043C47.0316 124.043 46.0674 123.902 45.1737 123.62C44.2801 123.337 43.5628 122.867 43.0219 122.209C42.4575 121.55 42.1753 120.68 42.1753 119.598C42.1753 119.222 42.2105 118.846 42.2811 118.469C42.2811 118.328 42.3634 118.258 42.528 118.258C42.6691 118.258 42.7397 118.316 42.7397 118.434C42.7397 118.575 42.7397 118.705 42.7397 118.822C42.7162 118.94 42.7044 119.057 42.7044 119.175C42.7044 120.186 42.9984 121.009 43.5863 121.644C44.1507 122.279 44.8915 122.738 45.8087 123.02C46.7259 123.326 47.7019 123.479 48.7367 123.479C49.4892 123.479 50.2418 123.396 50.9944 123.232C51.7469 123.091 52.4407 122.891 53.0757 122.632C54.4632 122.044 55.7567 121.233 56.9561 120.198C58.1555 119.187 59.2961 118.081 60.3779 116.882C60.2133 116.905 60.0369 116.917 59.8487 116.917C59.6841 116.941 59.5077 116.952 59.3196 116.952C58.7081 116.952 58.1084 116.894 57.5205 116.776C56.9561 116.658 56.4152 116.494 55.8978 116.282C54.181 115.506 52.9346 114.448 52.1585 113.107C51.4059 111.743 51.0296 110.262 51.0296 108.663C51.0296 107.557 51.1825 106.428 51.4882 105.276C51.8175 104.1 52.2761 102.971 52.864 101.889C52.7229 101.254 52.6524 100.596 52.6524 99.9139C52.6524 98.5264 52.9581 97.1271 53.5695 95.7161C54.181 94.2815 55.0747 92.9762 56.2505 91.8004C57.4499 90.601 58.9316 89.6367 60.6954 88.9077C62.4592 88.1787 64.5052 87.8141 66.8335 87.8141C68.6679 87.8141 70.3494 88.1199 71.878 88.7313C73.4067 89.3193 74.6766 90.1894 75.6879 91.3418C76.6991 92.4706 77.3341 93.8582 77.5928 95.5044C78.8157 94.1639 79.9916 92.9645 81.1204 91.9062C82.2493 90.8479 83.3193 90.0248 84.3306 89.4368C85.2243 88.9195 86.0826 88.5432 86.9058 88.308C87.7289 88.0728 88.505 87.9552 89.234 87.9552C90.504 87.9552 91.5387 88.2845 92.3383 88.943C93.1615 89.578 93.573 90.4246 93.573 91.4829C93.573 92.4471 93.1615 93.5524 92.3383 94.7989C91.5152 96.0218 90.1394 97.2917 88.211 98.6087C87.3173 99.2202 86.3884 99.7611 85.4242 100.231C84.4835 100.702 83.5192 101.102 82.5315 101.431L81.6496 102.877C81.4379 103.206 81.1439 103.712 80.7677 104.394C80.3914 105.053 79.9798 105.805 79.533 106.652C79.1097 107.498 78.6981 108.38 78.2983 109.297C77.8985 110.191 77.5693 111.05 77.3106 111.873C77.0519 112.696 76.9225 113.413 76.9225 114.025C76.9225 114.707 77.1342 115.177 77.5575 115.436C77.7221 115.53 77.9338 115.577 78.1925 115.577C78.7569 115.577 79.3801 115.318 80.0621 114.801C80.7677 114.26 81.4732 113.519 82.1787 112.578C82.9078 111.614 83.578 110.497 84.1895 109.227C84.26 109.109 84.3423 109.051 84.4364 109.051C84.601 109.051 84.6481 109.145 84.5775 109.333C83.9661 110.603 83.2958 111.755 82.5668 112.79C81.8612 113.825 81.1087 114.659 80.3091 115.294C79.533 115.906 78.7216 116.212 77.875 116.212C76.9343 116.212 76.2405 115.918 75.7937 115.33C75.3704 114.718 75.1587 113.93 75.1587 112.966C75.1822 111.155 75.6291 109.345 76.4992 107.534C77.3929 105.723 78.4865 103.959 79.7799 102.242C79.2155 102.36 78.6511 102.477 78.0867 102.595C77.5458 102.689 76.9813 102.783 76.3934 102.877C76.2052 103.371 75.9818 103.865 75.7231 104.359C75.4644 104.853 75.1705 105.37 74.8412 105.911C72.8893 109.109 70.7727 111.579 68.4915 113.319C66.2338 115.036 64.0584 116.141 61.9653 116.635C60.7189 117.928 59.3666 119.151 57.9085 120.304C56.4504 121.48 54.8983 122.397 53.2521 123.055C52.4995 123.361 51.6646 123.596 50.7474 123.761C49.8538 123.949 48.9601 124.043 48.0664 124.043ZM68.174 102.207L72.266 102.031C73.0656 101.019 73.8535 100.032 74.6296 99.0673C75.4057 98.1031 76.17 97.1859 76.9225 96.3158C76.7579 94.6225 76.1935 93.1997 75.2293 92.0473C74.2886 90.8949 73.0656 90.0248 71.5605 89.4368C70.0789 88.8254 68.4444 88.5197 66.6571 88.5197C64.4464 88.5197 62.5062 88.8959 60.8365 89.6485C59.1667 90.4011 57.7674 91.3888 56.6386 92.6117C55.5333 93.8346 54.7101 95.1634 54.1692 96.598C53.6519 98.009 53.4402 99.3848 53.5343 100.725C54.8983 98.5382 56.4387 96.9625 58.1555 95.9983C59.8958 95.0105 61.5303 94.5167 63.0589 94.5167C64.0937 94.5167 65.0344 94.7283 65.881 95.1516C66.7276 95.5514 67.3979 96.1276 67.8918 96.8802C68.3856 97.6327 68.6326 98.5499 68.6326 99.6317C68.6326 100.455 68.4797 101.313 68.174 102.207ZM76.8873 101.642C78.2042 101.501 79.4742 101.29 80.6971 101.008C82.2022 99.1496 83.7779 97.3976 85.4242 95.7513C87.0939 94.0816 88.5402 92.5647 89.7632 91.2007C89.8807 91.0831 89.9748 91.0243 90.0454 91.0243C90.163 91.0243 90.2218 91.1066 90.2218 91.2712C90.2218 91.3653 90.1747 91.4476 90.0806 91.5182C89.1164 92.4589 88.0229 93.7171 86.7999 95.2927C85.6005 96.8684 84.4129 98.5499 83.237 100.337C84.0366 100.079 84.8127 99.7846 85.5653 99.4554C86.3413 99.1026 87.0821 98.7028 87.7877 98.256C89.6926 97.0566 91.0566 95.8924 91.8797 94.7636C92.7264 93.6347 93.1497 92.647 93.1497 91.8004C93.1497 91.0008 92.8557 90.3776 92.2678 89.9307C91.6798 89.4604 90.8802 89.2252 89.869 89.2252C89.187 89.2252 88.4227 89.3545 87.576 89.6132C86.7294 89.8484 85.8357 90.2364 84.895 90.7774C83.8132 91.4358 82.6608 92.3413 81.4379 93.4936C80.2385 94.646 79.0038 95.9512 77.7339 97.4093C77.7104 98.7028 77.4282 100.114 76.8873 101.642ZM56.2858 105.84C56.6621 105.088 57.3794 104.394 58.4377 103.759C59.5195 103.124 61.0011 102.713 62.8825 102.524C64.4347 102.383 66.0456 102.277 67.7154 102.207C68.0211 101.36 68.174 100.537 68.174 99.7376C68.174 98.3265 67.7036 97.2212 66.7629 96.4216C65.8457 95.5985 64.6934 95.1869 63.3058 95.1869C62.3181 95.1869 61.2598 95.4338 60.131 95.9277C59.0021 96.3981 57.885 97.1389 56.7797 98.1501C55.6744 99.1614 54.6631 100.49 53.7459 102.136C53.9341 102.889 54.2398 103.583 54.6631 104.218C55.0864 104.853 55.6273 105.394 56.2858 105.84ZM73.9946 101.925L76.0759 101.748C76.3111 101.137 76.4875 100.549 76.605 99.9845C76.7462 99.4201 76.8402 98.8792 76.8873 98.3618C76.4169 98.9262 75.9348 99.5141 75.4409 100.126C74.9706 100.714 74.4885 101.313 73.9946 101.925ZM62.6356 115.894C64.517 115.33 66.4572 114.236 68.4562 112.613C70.4552 110.991 72.3248 108.733 74.0651 105.84C74.3709 105.347 74.6413 104.864 74.8765 104.394C75.1352 103.924 75.3704 103.465 75.582 103.018L72.8657 103.336C71.4312 105.123 69.9848 106.946 68.5267 108.804C67.0922 110.638 65.6694 112.39 64.2583 114.06C63.9996 114.366 63.7292 114.671 63.4469 114.977C63.1882 115.283 62.9178 115.588 62.6356 115.894ZM59.3902 116.423C59.884 116.423 60.3896 116.388 60.907 116.317C61.3304 115.824 61.7419 115.33 62.1417 114.836C62.565 114.342 62.9648 113.86 63.3411 113.39C64.6111 111.861 65.8928 110.25 67.1862 108.557C68.5032 106.863 69.8085 105.182 71.1019 103.512C70.514 103.559 69.9143 103.606 69.3028 103.653C68.6914 103.7 68.0799 103.747 67.4685 103.794C67.0216 104.617 66.3984 105.441 65.5988 106.264C64.8227 107.063 63.8467 107.839 62.6709 108.592C61.9653 109.039 61.3068 109.356 60.6954 109.544C60.0839 109.733 59.5077 109.827 58.9668 109.827C58.0261 109.827 57.2853 109.568 56.7444 109.051C56.2035 108.533 55.9331 107.91 55.9331 107.181C55.9331 106.852 55.9801 106.546 56.0742 106.264C55.4157 105.887 54.8513 105.429 54.3809 104.888C53.9105 104.347 53.5343 103.747 53.2521 103.089C52.8052 104.053 52.4407 105.041 52.1585 106.052C51.8998 107.063 51.7704 108.051 51.7704 109.015C51.7704 110.45 52.0997 111.779 52.7582 113.002C53.4402 114.201 54.5573 115.13 56.1094 115.788C57.0972 116.212 58.1908 116.423 59.3902 116.423ZM58.9668 109.368C59.3902 109.368 59.884 109.274 60.4484 109.086C61.0364 108.898 61.6831 108.592 62.3886 108.169C63.494 107.487 64.4112 106.781 65.1402 106.052C65.8928 105.323 66.4925 104.594 66.9393 103.865L64.5405 104.077C62.8237 104.241 61.4362 104.57 60.3779 105.064C59.3196 105.558 58.5435 106.087 58.0496 106.652C58.8963 106.887 59.8605 106.993 60.9423 106.969C61.201 106.969 61.3304 107.028 61.3304 107.146C61.3304 107.263 61.2128 107.322 60.9776 107.322C60.3896 107.346 59.8252 107.334 59.2843 107.287C58.7669 107.216 58.2731 107.11 57.8027 106.969C57.5205 107.393 57.3794 107.781 57.3794 108.133C57.3794 108.486 57.5087 108.78 57.7674 109.015C58.0496 109.25 58.4494 109.368 58.9668 109.368ZM90.6801 116.176C89.6923 116.176 89.1985 115.624 89.1985 114.518C89.1985 114.095 89.2808 113.589 89.4454 113.002C89.61 112.414 89.8687 111.767 90.2215 111.061C90.4096 110.662 90.6565 110.191 90.9623 109.65C91.2915 109.086 91.5855 108.533 91.8442 107.992C92.1029 107.451 92.2322 107.028 92.2322 106.722C92.2322 106.417 92.0676 106.264 91.7384 106.264C91.2915 106.264 90.8212 106.511 90.3273 107.005C89.857 107.475 89.3866 108.086 88.9162 108.839C88.4459 109.591 87.9991 110.379 87.5757 111.202C87.1524 112.026 86.7879 112.802 86.4822 113.531C86.1764 114.236 85.953 114.777 85.8119 115.153C85.6708 115.506 85.4709 115.73 85.2122 115.824C84.9535 115.918 84.6713 115.965 84.3656 115.965C84.0834 115.965 83.8129 116.012 83.5542 116.106C83.8835 115.353 84.1539 114.742 84.3656 114.271C84.5772 113.801 84.8007 113.331 85.0358 112.86C85.271 112.367 85.5532 111.708 85.8825 110.885C86.0706 110.462 86.2823 109.979 86.5174 109.439C86.7526 108.874 86.9525 108.333 87.1171 107.816C87.3053 107.275 87.3994 106.852 87.3994 106.546C87.3994 106.193 87.2818 106.017 87.0466 106.017C86.7644 106.017 86.4822 106.193 86.2 106.546C85.9177 106.899 85.6591 107.298 85.4239 107.745C85.2122 108.169 85.0358 108.51 84.8947 108.768C84.542 109.45 84.1892 110.121 83.8364 110.779C83.4837 111.438 83.0839 112.073 82.637 112.684H82.6018C82.5312 112.684 82.4489 112.66 82.3548 112.613C82.2843 112.566 82.2608 112.531 82.2843 112.508C82.6841 111.873 83.0604 111.238 83.4131 110.603C83.7894 109.968 84.1304 109.333 84.4361 108.698C84.6948 108.204 84.977 107.687 85.2828 107.146C85.5885 106.581 85.9413 106.111 86.3411 105.735C86.7409 105.358 87.1995 105.17 87.7168 105.17C87.952 105.17 88.2225 105.229 88.5282 105.347C88.8575 105.488 89.0221 105.805 89.0221 106.299C89.0221 106.558 88.975 106.875 88.881 107.251C88.7869 107.628 88.6576 108.051 88.4929 108.521C89.1044 107.651 89.7511 106.91 90.4331 106.299C91.1151 105.664 91.7384 105.347 92.3028 105.347C93.1965 105.347 93.6433 105.77 93.6433 106.616C93.6433 107.134 93.4904 107.769 93.1847 108.521C93.0906 108.78 92.9142 109.192 92.6555 109.756C92.4204 110.297 92.1734 110.908 91.9147 111.59C91.6796 112.249 91.4679 112.884 91.2798 113.495C91.0916 114.107 90.9976 114.612 90.9976 115.012C90.9976 115.436 91.1269 115.647 91.3856 115.647C91.5502 115.647 91.7619 115.577 92.0206 115.436C92.3028 115.271 92.632 115.012 93.0083 114.659C93.6903 114.048 94.3253 113.272 94.9132 112.331C95.5247 111.391 96.242 110.132 97.0651 108.557C97.0651 108.51 97.0886 108.486 97.1357 108.486C97.2062 108.486 97.2768 108.521 97.3473 108.592C97.4179 108.663 97.4296 108.721 97.3826 108.768C96.536 110.415 95.7599 111.79 95.0543 112.896C94.3723 113.977 93.6786 114.801 92.973 115.365C92.291 115.906 91.5267 116.176 90.6801 116.176ZM97.3991 116.176C96.623 116.176 96.0821 115.965 95.7764 115.541C95.4942 115.095 95.3531 114.554 95.3531 113.919C95.3531 113.237 95.4707 112.519 95.7059 111.767C95.941 110.991 96.1644 110.368 96.3761 109.897C97.0111 108.416 97.8107 107.263 98.7749 106.44C99.7391 105.593 100.621 105.17 101.421 105.17C102.103 105.17 102.561 105.37 102.796 105.77C103.055 106.17 103.184 106.664 103.184 107.251C103.184 107.863 103.079 108.51 102.867 109.192C102.679 109.85 102.467 110.415 102.232 110.885C101.95 111.473 101.656 112.026 101.35 112.543C101.044 113.06 100.727 113.531 100.398 113.954C100.609 114.142 100.868 114.236 101.174 114.236C101.644 114.236 102.103 114.013 102.549 113.566C103.02 113.119 103.455 112.566 103.855 111.908C104.278 111.249 104.643 110.614 104.948 110.003C105.278 109.392 105.524 108.933 105.689 108.627C105.736 108.557 105.783 108.521 105.83 108.521C105.877 108.521 105.924 108.568 105.971 108.663C106.018 108.733 106.018 108.815 105.971 108.909C105.595 109.709 105.125 110.603 104.56 111.59C104.019 112.578 103.408 113.39 102.726 114.025C102.444 114.283 102.173 114.471 101.915 114.589C101.656 114.707 101.421 114.765 101.209 114.765C100.809 114.765 100.456 114.612 100.151 114.307C99.7038 114.895 99.2453 115.353 98.7749 115.683C98.3045 116.012 97.846 116.176 97.3991 116.176ZM97.8224 115.647C98.0811 115.647 98.3869 115.494 98.7396 115.189C99.0924 114.859 99.4569 114.436 99.8332 113.919C99.8332 113.919 99.7626 113.801 99.6215 113.566C99.5039 113.331 99.4452 112.978 99.4452 112.508C99.4452 112.319 99.4569 112.12 99.4804 111.908C99.5039 111.673 99.5627 111.438 99.6568 111.202C99.8214 110.732 100.021 110.391 100.257 110.179C100.492 109.944 100.727 109.827 100.962 109.827C101.174 109.827 101.338 109.932 101.456 110.144C101.597 110.332 101.632 110.614 101.562 110.991C101.891 110.262 102.161 109.556 102.373 108.874C102.585 108.169 102.691 107.557 102.691 107.04C102.691 106.64 102.608 106.322 102.444 106.087C102.303 105.829 102.044 105.699 101.668 105.699C101.338 105.699 100.962 105.911 100.539 106.334C100.115 106.734 99.6803 107.275 99.2335 107.957C98.8102 108.615 98.4104 109.333 98.0341 110.109C97.6813 110.885 97.3874 111.649 97.1522 112.402C96.9405 113.131 96.8347 113.766 96.8347 114.307C96.8347 114.707 96.9053 115.036 97.0464 115.294C97.211 115.53 97.4697 115.647 97.8224 115.647ZM106.961 116.353C105.456 116.353 104.421 116.082 103.856 115.541C103.315 115.001 103.045 114.401 103.045 113.742C103.045 113.131 103.198 112.578 103.504 112.084C103.809 111.567 104.115 111.261 104.421 111.167C104.632 110.791 104.856 110.379 105.091 109.932C105.35 109.486 105.585 109.051 105.797 108.627C106.22 107.781 106.655 106.981 107.102 106.228C107.549 105.452 108.031 104.829 108.548 104.359C109.089 103.888 109.653 103.653 110.241 103.653C110.524 103.653 110.818 103.712 111.123 103.83C111.429 103.971 111.582 104.112 111.582 104.253C111.582 104.347 111.535 104.418 111.441 104.465C111.347 104.512 111.241 104.523 111.123 104.5C110.7 104.382 110.312 104.5 109.959 104.853C109.606 105.205 109.43 105.688 109.43 106.299C109.43 106.393 109.43 106.499 109.43 106.616C109.454 106.711 109.477 106.816 109.501 106.934C109.642 107.498 109.783 108.145 109.924 108.874C110.089 109.603 110.171 110.344 110.171 111.097C110.171 111.379 110.159 111.661 110.136 111.943C110.112 112.225 110.053 112.496 109.959 112.755C109.653 113.625 109.23 114.318 108.689 114.836C108.172 115.33 107.537 115.694 106.784 115.929C107.349 115.953 107.937 115.906 108.548 115.788C109.183 115.647 109.724 115.447 110.171 115.189C110.947 114.742 111.629 114.13 112.217 113.354C112.828 112.578 113.369 111.767 113.84 110.92C114.31 110.05 114.733 109.262 115.11 108.557C115.133 108.463 115.204 108.416 115.321 108.416C115.392 108.416 115.451 108.451 115.498 108.521C115.545 108.568 115.545 108.627 115.498 108.698C115.027 109.568 114.545 110.45 114.051 111.344C113.557 112.214 113.005 113.025 112.393 113.778C111.782 114.507 111.053 115.106 110.206 115.577C109.289 116.094 108.207 116.353 106.961 116.353ZM105.514 115.753C105.985 115.753 106.467 115.6 106.961 115.294C107.455 114.989 107.807 114.542 108.019 113.954C108.278 113.225 108.431 112.414 108.478 111.52C108.548 110.603 108.583 109.744 108.583 108.945C108.583 108.145 108.595 107.534 108.619 107.11C108.666 106.452 108.842 105.84 109.148 105.276C109.454 104.688 109.971 104.335 110.7 104.218C110.535 104.124 110.371 104.077 110.206 104.077C109.806 104.077 109.395 104.253 108.971 104.606C108.548 104.958 108.231 105.276 108.019 105.558C107.69 106.005 107.372 106.534 107.067 107.146C106.761 107.757 106.42 108.404 106.043 109.086L104.985 110.991C105.056 110.967 105.162 110.955 105.303 110.955C105.679 110.955 105.914 111.061 106.008 111.273C106.126 111.485 106.161 111.637 106.114 111.732C106.043 111.708 105.973 111.696 105.902 111.696C105.855 111.673 105.808 111.661 105.761 111.661C105.361 111.661 105.009 111.826 104.703 112.155C104.421 112.484 104.221 112.849 104.103 113.248C104.056 113.413 104.021 113.578 103.997 113.742C103.974 113.883 103.962 114.013 103.962 114.13C103.962 114.695 104.115 115.106 104.421 115.365C104.727 115.624 105.091 115.753 105.514 115.753Z" fill="url(#paint0_linear_1_7)"/>
<defs>
<linearGradient id="paint0_linear_1_7" x1="67" y1="81" x2="67" y2="121.727" gradientUnits="userSpaceOnUse">
<stop stop-color="#FFCF26"/>
<stop offset="1" stop-color="#FFC700" stop-opacity="0.29"/>
</linearGradient>
</defs>
</svg>
