<svg width="200" height="138" viewBox="0 0 200 138" fill="none" xmlns="http://www.w3.org/2000/svg">
<g filter="url(#filter0_d_6_5)">
<path d="M34.6597 60.8551C33.1659 60.8551 31.7716 60.6559 30.477 60.2576C29.1823 59.8924 28.1367 59.2617 27.34 58.3654C26.5433 57.4691 26.1449 56.2575 26.1449 54.7304C26.1449 54.1993 26.1947 53.6682 26.2943 53.137C26.3607 52.9378 26.4769 52.8383 26.6428 52.8383C26.842 52.8383 26.9416 52.9213 26.9416 53.0872C26.9416 53.2532 26.9416 53.4192 26.9416 53.5852C26.9084 53.7843 26.8918 53.9669 26.8918 54.1329C26.8918 55.5603 27.3068 56.7222 28.1367 57.6185C28.9334 58.5148 29.979 59.1787 31.2737 59.6103C32.5683 60.0418 33.946 60.2576 35.4066 60.2576C37 60.2576 38.5436 60.0252 40.0374 59.5605C41.6308 59.0625 43.1413 58.3156 44.5687 57.3197C46.0293 56.357 47.4236 55.2284 48.7514 53.9337C46.3945 53.3362 44.3529 52.2905 42.6267 50.7967C40.9005 49.3029 39.5727 47.4937 38.6432 45.3692C37.7469 43.2446 37.2988 40.9873 37.2988 38.5972C37.2988 36.4394 37.6639 34.3315 38.3942 32.2733C39.2905 29.7504 40.6018 27.3105 42.328 24.9536C44.0542 22.5967 46.3447 20.4555 49.1995 18.5302C52.0544 16.6048 55.5898 15.028 59.8057 13.7997C64.0548 12.5715 69.1172 11.8246 74.9929 11.559C75.69 11.5258 76.5199 11.5092 77.4826 11.5092C78.4784 11.5092 79.4411 11.5092 80.3706 11.5092C81.0345 11.3432 81.6155 11.2602 82.1134 11.2602C82.6445 11.2602 83.1259 11.3266 83.5574 11.4594C83.657 11.4926 83.7068 11.5922 83.7068 11.7582C83.74 11.7914 83.7566 11.8578 83.7566 11.9573C83.7566 12.1897 83.6238 12.3059 83.3583 12.3059C82.1632 12.3391 81.2005 12.7541 80.4702 13.5508C79.7399 14.3475 79.0096 15.3765 78.2793 16.638C77.8145 17.5343 77.466 18.5634 77.2336 19.7252C77.0012 20.8871 76.8518 22.1485 76.7854 23.5096C77.7149 24.2731 78.4286 25.1528 78.9266 26.1487C79.4577 27.1445 79.6901 28.2234 79.6237 29.3853C79.6237 29.6176 79.5075 29.7338 79.2751 29.7338C79.0096 29.7338 78.8768 29.601 78.8768 29.3355C78.9432 28.3728 78.7772 27.4765 78.3789 26.6466C78.0137 25.7835 77.4826 25.0034 76.7854 24.3063C76.6859 26.63 76.6029 29.1197 76.5365 31.7754C76.5033 34.4311 76.1381 37.0204 75.441 39.5433C76.3373 39.4769 77.2004 39.3773 78.0303 39.2445C79.2254 37.2859 80.4702 35.178 81.7648 32.9206C83.0595 30.6633 84.3873 28.3562 85.7484 25.9993C87.1094 23.6424 88.5202 21.3684 89.9809 19.1775C91.4415 16.9865 92.9685 14.9948 94.5619 13.2022C96.3877 11.144 98.2135 9.65022 100.039 8.72073C101.865 7.79125 103.541 7.3265 105.068 7.3265C106.828 7.3265 108.272 7.90743 109.401 9.06929C110.562 10.198 111.143 11.7416 111.143 13.7001C111.143 15.8579 110.297 18.414 108.604 21.3684C106.944 24.2897 104.089 27.4267 100.039 30.7795C97.45 32.904 94.4789 34.6966 91.1261 36.1573C89.7983 38.7465 88.7526 41.1035 87.9891 43.228C87.2588 45.3194 86.8936 47.0456 86.8936 48.4066C86.8936 49.3693 87.0928 50.1162 87.4912 50.6473C87.9227 51.2117 88.57 51.4938 89.4331 51.4938C90.4622 51.4938 91.6075 50.9959 92.8689 50C94.1636 49.0373 95.4416 47.7261 96.7031 46.0663C97.9645 44.3733 99.0766 42.4977 100.039 40.4395C100.139 40.2736 100.255 40.1906 100.388 40.1906C100.62 40.1906 100.687 40.3234 100.587 40.5889C99.6243 42.5807 98.5122 44.5061 97.2508 46.365C96.0225 48.224 94.6781 49.7344 93.2175 50.8963C91.7569 52.0913 90.2132 52.6889 88.5866 52.6889C86.8936 52.6889 85.7152 52.1743 85.0513 51.1453C84.3873 50.1494 84.0554 48.8879 84.0554 47.3609C84.0554 45.9335 84.2711 44.3899 84.7027 42.7301C85.1342 41.0703 85.6654 39.5101 86.2961 38.0494C85.1674 38.4146 84.0222 38.7465 82.8603 39.0453C81.7317 39.3109 80.5864 39.5432 79.4245 39.7424C77.9639 41.7674 76.4867 43.5932 74.9929 45.2198C73.499 46.8464 72.0384 48.1244 70.611 49.0539C69.2167 49.9834 67.9055 50.415 66.6773 50.3486C66.4117 50.3486 66.2789 50.249 66.2789 50.0498C66.2789 49.917 66.3453 49.8008 66.4781 49.7012C67.8723 48.7386 68.9844 47.4439 69.8143 45.8173C70.6774 44.1575 71.3579 42.3483 71.8558 40.3897H70.5612C69.3329 40.3897 68.1047 40.2902 66.8764 40.091C65.6482 39.8586 64.4531 39.5764 63.2913 39.2445C61.8638 41.9666 60.2372 44.5559 58.4114 47.0124C56.5857 49.4689 54.5773 51.6764 52.3864 53.635C54.4777 53.6018 56.4031 53.0872 58.1625 52.0914C59.9219 51.0955 61.0671 49.6182 61.5983 47.6597C61.6315 47.4937 61.7476 47.4107 61.9468 47.4107C62.2456 47.4107 62.3618 47.5601 62.2954 47.8589C61.8638 49.3859 61.1003 50.6307 60.0048 51.5934C58.9094 52.5893 57.6147 53.303 56.1209 53.7346C54.6603 54.1993 53.1499 54.3985 51.5897 54.3321C49.6975 55.8923 47.6725 57.2035 45.5148 58.2658C43.3902 59.3613 41.0997 60.1082 38.6432 60.5065C38.0125 60.6061 37.3652 60.6891 36.7012 60.7555C36.0041 60.8219 35.3236 60.8551 34.6597 60.8551ZM80.0221 38.9457C81.1839 38.7133 82.3126 38.4478 83.4081 38.149C84.5367 37.8171 85.6488 37.4685 86.7443 37.1033C87.8397 34.8128 89.1012 32.5389 90.5286 30.2816C91.9892 28.0242 93.4664 25.8499 94.9603 23.7585C96.4873 21.6672 97.9147 19.7584 99.2426 18.0322C100.57 16.2728 101.649 14.7956 102.479 13.6006C102.645 13.4014 102.795 13.3018 102.927 13.3018C103.16 13.3018 103.276 13.4346 103.276 13.7001C103.276 13.8661 103.226 13.9989 103.126 14.0985C102.031 15.5259 100.803 17.3683 99.4417 19.6256C98.0807 21.8498 96.7197 24.3063 95.3586 26.9952C93.9976 29.6508 92.7527 32.3231 91.6241 35.012C92.8523 34.3813 94.0308 33.7173 95.1594 33.0202C96.2881 32.2899 97.367 31.5098 98.3961 30.6799C101.151 28.489 103.375 26.3146 105.068 24.1569C106.795 21.9991 108.056 19.9742 108.853 18.082C109.683 16.1566 110.098 14.4968 110.098 13.1026C110.098 11.8744 109.799 10.9117 109.201 10.2146C108.637 9.48424 107.824 9.11909 106.761 9.11909C105.633 9.11909 104.288 9.55064 102.728 10.4137C101.168 11.2436 99.4085 12.6379 97.45 14.5964C95.8898 16.1566 94.3461 17.9492 92.8191 19.9742C91.3253 21.9991 89.8481 24.1237 88.3875 26.3478C86.9268 28.5388 85.4994 30.7131 84.1052 32.8708C82.7109 35.0286 81.3499 37.0369 80.0221 38.8959V38.9457ZM49.3489 53.3362C51.4403 51.1453 53.349 48.6888 55.0752 45.9667C56.8346 43.2446 58.428 40.6055 59.8555 38.0494C57.7641 37.1199 56.0711 35.9415 54.7765 34.5141C53.4818 33.0534 52.9009 31.3438 53.0337 29.3853C53.1997 27.1611 53.8968 25.3685 55.125 24.0075C56.3533 22.6133 57.8969 21.5842 59.7559 20.9203C61.6149 20.2564 63.5734 19.9244 65.6316 19.9244C67.1586 19.9244 68.7354 20.107 70.362 20.4721C71.7894 18.5136 73.1671 16.8538 74.4949 15.4927C75.856 14.1317 77.1672 13.086 78.4286 12.3557C78.0967 12.3557 77.7481 12.3557 77.383 12.3557C77.051 12.3225 76.7025 12.3059 76.3373 12.3059C73.3497 12.3059 70.3454 12.5549 67.3246 13.0528C64.3037 13.5176 61.3659 14.2479 58.511 15.2438C55.6562 16.2396 52.9839 17.5509 50.4942 19.1775C48.0377 20.7709 45.8799 22.6797 44.021 24.9038C42.162 27.1279 40.718 29.7172 39.6889 32.6717C38.9254 34.8958 38.5436 37.0369 38.5436 39.0951C38.5436 41.3856 38.9586 43.5268 39.7885 45.5185C40.6516 47.5103 41.8964 49.1867 43.523 50.5477C45.1496 51.9088 47.0916 52.8383 49.3489 53.3362ZM74.5447 21.966C74.7107 21.2024 74.9099 20.4721 75.1422 19.775C75.4078 19.0447 75.7066 18.3808 76.0385 17.7833C76.5365 16.9202 77.2336 15.9575 78.1299 14.8952C79.0262 13.7997 80.0221 13.0196 81.1175 12.5549L80.1714 12.4553C78.9764 13.086 77.7149 14.1649 76.3871 15.6919C75.0924 17.1857 73.7812 18.9783 72.4534 21.0697C73.2169 21.302 73.914 21.6008 74.5447 21.966ZM60.3534 37.1531L63.1419 32.0741C64.3037 29.9496 65.449 27.9578 66.5777 26.0989C67.7395 24.2399 68.8682 22.5469 69.9637 21.0199C69.3661 20.8871 68.7686 20.8041 68.1711 20.7709C67.5735 20.7045 66.976 20.6713 66.3785 20.6713C64.5527 20.6713 62.8099 20.9701 61.1501 21.5676C59.4903 22.1651 58.1127 23.1112 57.0172 24.4059C55.9549 25.6673 55.3408 27.3271 55.1748 29.3853C55.0752 31.0783 55.4902 32.5887 56.4197 33.9165C57.3824 35.2112 58.6936 36.29 60.3534 37.1531ZM70.5612 39.6428H72.0052C72.5695 37.1863 72.9513 34.68 73.1505 32.1239C73.3497 29.5346 73.6152 27.2607 73.9472 25.3022L74.3953 22.5635C74.0634 22.3975 73.6982 22.2315 73.2999 22.0655C72.9347 21.8664 72.553 21.7004 72.1546 21.5676C71.0259 23.3934 69.9139 25.4017 68.8184 27.5927C67.7561 29.7836 66.6773 32.0575 65.5818 34.4145L63.6896 38.4976C64.7187 38.7963 65.8142 39.0619 66.976 39.2943C68.1379 39.5267 69.3329 39.6428 70.5612 39.6428ZM70.3122 48.0082C71.4741 47.6099 72.6525 46.697 73.8476 45.2696C75.0427 43.8089 76.2875 42.0661 77.5821 40.0412C77.1838 40.0744 76.7854 40.1242 76.3871 40.1906C75.9887 40.2238 75.5904 40.257 75.192 40.2902C74.7605 41.7176 74.1464 43.0786 73.3497 44.3733C72.5861 45.6679 71.5737 46.8796 70.3122 48.0082ZM100.788 50.249C99.6591 50.249 98.879 49.9336 98.4474 49.3029C98.0491 48.6722 97.8499 47.8921 97.8499 46.9626C97.8499 45.9999 98.0159 44.9874 98.3478 43.9251C98.6798 42.8629 98.9951 42.0164 99.2939 41.3856C100.356 39.1615 101.833 37.4685 103.726 36.3066C105.651 35.1116 107.626 34.5141 109.651 34.5141C109.917 34.5141 110.182 34.5141 110.448 34.5141C110.747 34.5141 111.029 34.5472 111.294 34.6136C111.958 34.7132 112.29 34.7962 112.29 34.8626C112.29 34.929 112.041 34.9954 111.543 35.0618C111.078 35.1282 110.73 35.1614 110.498 35.1614C108.871 35.1614 107.41 35.5929 106.116 36.456C104.854 37.3191 103.775 38.4146 102.879 39.7424C101.983 41.0703 101.286 42.4313 100.788 43.8255C100.323 45.1866 100.091 46.365 100.091 47.3609C100.091 47.9916 100.19 48.5062 100.389 48.9045C100.622 49.3029 100.954 49.5021 101.385 49.5021C101.85 49.5021 102.381 49.1867 102.979 48.556C103.576 47.9252 104.157 47.1617 104.721 46.2654C105.286 45.336 105.8 44.4397 106.265 43.5766C106.73 42.6803 107.078 41.9998 107.311 41.535L109.452 37.0535C110.016 36.9208 110.581 36.7714 111.145 36.6054C111.742 36.4062 112.307 36.1905 112.838 35.9581C112.274 36.9208 111.726 37.9332 111.195 38.9955C110.697 40.0578 110.182 41.1035 109.651 42.1325C109.253 42.896 108.854 43.7923 108.456 44.8214C108.091 45.8505 107.908 46.78 107.908 47.6099V47.8091C107.908 48.0746 107.941 48.3734 108.008 48.7054C108.074 49.0041 108.257 49.1535 108.556 49.1535C108.921 49.1535 109.385 48.9377 109.95 48.5062C110.514 48.0414 110.913 47.6929 111.145 47.4605C112.207 46.3982 113.12 45.2198 113.884 43.9251C114.68 42.6305 115.411 41.3192 116.074 39.9914C116.141 39.925 116.191 39.8918 116.224 39.8918C116.489 39.8918 116.589 40.0246 116.523 40.2902C116.523 40.2902 116.44 40.4395 116.274 40.7383C116.141 41.0371 116.058 41.2031 116.025 41.2362C115.394 42.3981 114.763 43.5102 114.133 44.5724C113.502 45.6347 112.755 46.6472 111.892 47.6099C111.361 48.141 110.713 48.7054 109.95 49.3029C109.186 49.9004 108.423 50.1992 107.659 50.1992C106.929 50.1992 106.414 49.917 106.116 49.3527C105.817 48.7551 105.668 48.0912 105.668 47.3609C105.668 46.8962 105.701 46.448 105.767 46.0165C105.867 45.5517 105.966 45.1534 106.066 44.8214C105.834 45.4189 105.419 46.1493 104.821 47.0124C104.257 47.8755 103.609 48.639 102.879 49.3029C102.182 49.9336 101.485 50.249 100.788 50.249ZM119.43 50.249C118.036 50.249 117.338 49.4689 117.338 47.9086C117.338 47.3111 117.455 46.5974 117.687 45.7675C117.919 44.9376 118.284 44.0247 118.782 43.0288C119.048 42.4313 119.413 41.7176 119.878 40.8877C120.343 40.0246 120.758 39.1781 121.123 38.3482C121.521 37.5183 121.72 36.8544 121.72 36.3564C121.72 35.8585 121.455 35.6095 120.924 35.6095C120.691 35.6095 120.392 35.6759 120.027 35.8087C119.662 35.9083 119.164 36.0411 118.533 36.207C118.268 36.871 117.836 37.8005 117.239 38.9955C116.674 40.1574 116.044 41.3524 115.347 42.5807C114.65 43.8089 113.986 44.8712 113.355 45.7675C113.355 45.7675 113.338 45.7841 113.305 45.8173C113.305 45.8173 113.272 45.8173 113.206 45.8173C113.139 45.8173 113.04 45.8007 112.907 45.7675C112.807 45.7011 112.774 45.6513 112.807 45.6181C113.338 44.8546 113.886 43.9749 114.45 42.979C115.015 41.95 115.546 40.9375 116.044 39.9416C116.575 38.9457 117.006 38.0992 117.338 37.4021C117.704 36.6718 117.903 36.2402 117.936 36.1075C117.438 35.9415 117.04 35.5597 116.741 34.9622C116.475 34.3315 116.343 33.7007 116.343 33.07C116.343 32.5057 116.475 32.0243 116.741 31.626C117.006 31.2276 117.405 31.0285 117.936 31.0285C118.334 31.0285 118.6 31.2442 118.733 31.6758C118.899 32.0741 118.982 32.5555 118.982 33.1198C118.982 33.8501 118.899 34.5804 118.733 35.3108C118.733 35.3108 118.915 35.2776 119.28 35.2112C119.646 35.1448 120.077 35.095 120.575 35.0618C121.073 34.9954 121.505 34.9622 121.87 34.9622C122.965 34.9622 123.513 35.4933 123.513 36.5556C123.513 37.2195 123.33 38.0826 122.965 39.1449C122.6 40.174 122.135 41.369 121.571 42.7301C120.442 45.4189 119.878 47.3111 119.878 48.4066C119.878 49.0705 120.094 49.4025 120.525 49.4025C121.056 49.4025 121.803 48.9709 122.766 48.1078C123.729 47.2447 124.608 46.1659 125.405 44.8712C126.235 43.5434 127.247 41.7674 128.442 39.5433C128.476 39.4769 128.525 39.4437 128.592 39.4437C128.691 39.4437 128.774 39.4935 128.841 39.593C128.94 39.6594 128.974 39.7258 128.94 39.7922C127.115 43.2446 125.521 45.8505 124.16 47.6099C122.799 49.3693 121.222 50.249 119.43 50.249ZM135.968 31.5762C135.504 31.5762 135.105 31.4268 134.773 31.1281C134.475 30.7961 134.325 30.4143 134.325 29.9828C134.325 29.4185 134.508 28.9371 134.873 28.5388C135.271 28.1404 135.736 27.9412 136.267 27.9412C136.732 27.9412 137.13 28.1072 137.462 28.4392C137.794 28.7711 137.96 29.1861 137.96 29.684C137.96 30.2152 137.761 30.6633 137.363 31.0285C136.964 31.3936 136.5 31.5762 135.968 31.5762ZM130.491 50.249C129.894 50.249 129.412 50.0332 129.047 49.6016C128.715 49.1369 128.549 48.5394 128.549 47.8091C128.549 46.8796 128.732 45.8837 129.097 44.8214C129.495 43.7591 129.943 42.6969 130.441 41.6346C130.972 40.5391 131.437 39.5101 131.835 38.5474C132.001 38.0826 132.151 37.6677 132.284 37.3025C132.416 36.9374 132.483 36.6386 132.483 36.4062C132.483 36.0743 132.333 35.9083 132.035 35.9083C131.636 35.9083 131.238 36.1573 130.84 36.6552C130.441 37.1531 130.076 37.7175 129.744 38.3482C129.445 38.9457 129.196 39.4271 128.997 39.7922C128.499 40.7549 127.952 41.7508 127.354 42.7799C126.79 43.8089 126.209 44.755 125.611 45.6181C125.611 45.6513 125.578 45.6679 125.512 45.6679C125.445 45.6679 125.362 45.6181 125.263 45.5185C125.163 45.4189 125.13 45.3526 125.163 45.3194C125.794 44.4231 126.375 43.477 126.906 42.4811C127.47 41.452 127.985 40.4727 128.449 39.5433C128.781 38.8461 129.147 38.1324 129.545 37.4021C129.977 36.6386 130.474 36.0079 131.039 35.5099C131.603 34.9788 132.25 34.7132 132.981 34.7132C133.313 34.7132 133.694 34.7962 134.126 34.9622C134.624 35.1614 134.873 35.5929 134.873 36.2568C134.873 36.5888 134.807 36.9872 134.674 37.4519C134.574 37.8834 134.425 38.3814 134.226 38.9457C133.794 40.0744 133.313 41.2196 132.782 42.3815C132.284 43.5102 131.819 44.6554 131.387 45.8173C131.055 46.7136 130.889 47.5103 130.889 48.2074C130.889 48.9709 131.138 49.3527 131.636 49.3527C132.101 49.3527 132.815 48.9377 133.777 48.1078C134.74 47.2447 135.636 46.1659 136.466 44.8712C137.296 43.5434 138.292 41.7674 139.454 39.5433C139.487 39.4769 139.554 39.4437 139.653 39.4437C139.72 39.4437 139.786 39.4935 139.852 39.593C139.952 39.6594 139.985 39.7258 139.952 39.7922C138.193 43.2114 136.616 45.8173 135.221 47.6099C133.827 49.3693 132.25 50.249 130.491 50.249ZM139.738 50.249C138.609 50.249 137.829 49.9336 137.398 49.3029C136.999 48.6722 136.8 47.8921 136.8 46.9626C136.8 45.9999 136.966 44.9874 137.298 43.9251C137.63 42.8629 137.945 42.0164 138.244 41.3856C139.306 39.1615 140.784 37.4685 142.676 36.3066C144.601 35.1116 146.576 34.5141 148.601 34.5141C148.867 34.5141 149.132 34.5141 149.398 34.5141C149.697 34.5141 149.979 34.5472 150.244 34.6136C150.908 34.7132 151.24 34.7962 151.24 34.8626C151.24 34.929 150.991 34.9954 150.493 35.0618C150.029 35.1282 149.68 35.1614 149.448 35.1614C147.821 35.1614 146.361 35.5929 145.066 36.456C143.804 37.3191 142.726 38.4146 141.829 39.7424C140.933 41.0703 140.236 42.4313 139.738 43.8255C139.273 45.1866 139.041 46.365 139.041 47.3609C139.041 47.9916 139.14 48.5062 139.34 48.9045C139.572 49.3029 139.904 49.5021 140.335 49.5021C140.8 49.5021 141.331 49.1867 141.929 48.556C142.526 47.9252 143.107 47.1617 143.672 46.2654C144.236 45.336 144.751 44.4397 145.215 43.5766C145.68 42.6803 146.029 41.9998 146.261 41.535L148.402 37.0535C148.966 36.9208 149.531 36.7714 150.095 36.6054C150.693 36.4062 151.257 36.1905 151.788 35.9581C151.224 36.9208 150.676 37.9332 150.145 38.9955C149.647 40.0578 149.132 41.1035 148.601 42.1325C148.203 42.896 147.805 43.7923 147.406 44.8214C147.041 45.8505 146.859 46.78 146.859 47.6099V47.8091C146.859 48.0746 146.892 48.3734 146.958 48.7054C147.024 49.0041 147.207 49.1535 147.506 49.1535C147.871 49.1535 148.336 48.9377 148.9 48.5062C149.464 48.0414 149.863 47.6929 150.095 47.4605C151.157 46.3982 152.07 45.2198 152.834 43.9251C153.63 42.6305 154.361 41.3192 155.025 39.9914C155.091 39.925 155.141 39.8918 155.174 39.8918C155.44 39.8918 155.539 40.0246 155.473 40.2902C155.473 40.2902 155.39 40.4395 155.224 40.7383C155.091 41.0371 155.008 41.2031 154.975 41.2362C154.344 42.3981 153.713 43.5102 153.083 44.5724C152.452 45.6347 151.705 46.6472 150.842 47.6099C150.311 48.141 149.664 48.7054 148.9 49.3029C148.137 49.9004 147.373 50.1992 146.61 50.1992C145.879 50.1992 145.365 49.917 145.066 49.3527C144.767 48.7551 144.618 48.0912 144.618 47.3609C144.618 46.8962 144.651 46.448 144.717 46.0165C144.817 45.5517 144.917 45.1534 145.016 44.8214C144.784 45.4189 144.369 46.1493 143.771 47.0124C143.207 47.8755 142.56 48.639 141.829 49.3029C141.132 49.9336 140.435 50.249 139.738 50.249Z" fill="#E0B9B4" fill-opacity="0.8" shape-rendering="crispEdges"/>
</g>
<g filter="url(#filter1_d_6_5)">
<path d="M113.797 97.7779C111.663 97.7779 109.739 97.3407 108.025 96.4662C106.346 95.5916 104.999 94.3323 103.985 92.6882C103.005 91.0441 102.516 89.0502 102.516 86.7065C102.516 86.4266 102.516 86.1468 102.516 85.8669C102.551 85.5521 102.586 85.2548 102.621 84.9749C101.081 83.5407 99.962 81.9841 99.2624 80.305C98.5627 78.5909 98.2129 76.8943 98.2129 75.2153C98.2129 73.5711 98.4928 71.9795 99.0525 70.4404C99.6471 68.8662 100.417 67.4845 101.361 66.2951L101.414 66.1902L100.941 65.4031C100.172 64.1088 99.7871 62.8145 99.7871 61.5202C99.7871 60.2259 100.154 59.0541 100.889 58.0046C101.659 56.9202 102.708 56.0632 104.037 55.4335C105.402 54.8039 106.976 54.4891 108.76 54.4891C110.334 54.4891 112.065 54.7689 113.954 55.3286C115.843 55.8883 117.802 56.8328 119.831 58.1621C120.216 58.4069 120.601 58.6693 120.986 58.9491C121.405 59.229 121.808 59.5263 122.192 59.8411C123.487 59.0716 124.781 58.3719 126.075 57.7423C127.37 57.0776 128.664 56.518 129.958 56.0632C131.777 55.3636 133.421 54.8738 134.89 54.594C136.395 54.2792 137.724 54.1218 138.878 54.1218C141.047 54.1218 142.656 54.594 143.706 55.5385C144.79 56.448 145.332 57.6199 145.332 59.0541C145.332 60.3134 144.93 61.6951 144.125 63.1993C143.356 64.6685 142.184 66.1552 140.61 67.6594C139.036 69.1286 137.094 70.4753 134.785 71.6997C133.631 72.2943 132.459 72.8191 131.27 73.2738C131.34 73.5886 131.41 73.921 131.48 74.2708C131.55 74.5856 131.602 74.9179 131.637 75.2677C131.672 75.5126 131.69 75.7749 131.69 76.0548C131.725 76.3346 131.742 76.6145 131.742 76.8943C131.742 78.8882 131.287 80.6898 130.378 82.2989C129.503 83.908 128.297 85.2723 126.757 86.3917C125.253 87.511 123.522 88.3856 121.563 89.0152C119.639 89.6099 117.645 89.9072 115.581 89.9072C114.042 89.9072 112.485 89.7323 110.911 89.3825C109.372 89.0327 107.885 88.473 106.451 87.7034C106.416 90.6418 107.098 92.8981 108.497 94.4722C109.897 96.0814 111.821 96.8859 114.269 96.8859C115.563 96.8859 116.998 96.6236 118.572 96.0989C120.146 95.6091 121.79 94.8745 123.504 93.8951C125.148 92.9506 126.687 91.8837 128.122 90.6943C129.591 89.47 130.903 88.2281 132.057 86.9688C133.246 85.6745 134.173 84.4502 134.838 83.2958C134.908 83.1559 135.013 83.086 135.153 83.086C135.258 83.086 135.345 83.1384 135.415 83.2434C135.52 83.3483 135.538 83.4882 135.468 83.6631C134.313 85.692 132.722 87.7034 130.693 89.6973C128.699 91.6563 126.495 93.3354 124.081 94.7346C122.332 95.749 120.583 96.5011 118.834 96.9909C117.085 97.5156 115.406 97.7779 113.797 97.7779ZM131.06 72.4867C131.655 72.2419 132.214 71.997 132.739 71.7521C133.264 71.5073 133.771 71.2449 134.261 70.9651C137.479 69.181 139.928 67.1871 141.607 64.9833C143.286 62.7795 144.125 60.8206 144.125 59.1065C144.125 57.8822 143.706 56.9027 142.866 56.1681C142.062 55.3986 140.785 55.0138 139.036 55.0138C137.951 55.0138 136.674 55.2062 135.205 55.591C133.771 55.9408 132.127 56.518 130.273 57.3225C127.999 58.267 125.778 59.5088 123.609 61.048C125.288 62.5522 126.792 64.3012 128.122 66.2951C129.451 68.254 130.43 70.3179 131.06 72.4867ZM108.602 71.4373C110.246 69.4084 112.135 67.467 114.269 65.613C116.438 63.724 118.694 62.0274 121.038 60.5233L119.411 59.4214C117.627 58.197 115.861 57.3225 114.112 56.7978C112.398 56.2731 110.789 56.0107 109.284 56.0107C107.011 56.0107 105.122 56.5354 103.617 57.5849C102.148 58.6343 101.414 60.0335 101.414 61.7826C101.414 62.797 101.729 63.9164 102.358 65.1407C104.282 63.2168 106.398 62.2548 108.707 62.2548C109.197 62.2548 109.669 62.3073 110.124 62.4122C110.579 62.4822 111.033 62.6221 111.488 62.832C111.628 62.867 111.698 62.9544 111.698 63.0944C111.698 63.1993 111.646 63.2868 111.541 63.3567C111.436 63.3917 111.296 63.3742 111.121 63.3042C110.491 63.0594 109.774 62.937 108.97 62.937C106.661 62.937 104.597 63.9339 102.778 65.9278L102.883 66.0852C104.387 68.324 106.294 70.108 108.602 71.4373ZM120.513 74.3757C123.906 74.3757 127.177 73.8335 130.325 72.7491C129.696 70.5803 128.681 68.5689 127.282 66.7149C125.918 64.8259 124.361 63.1643 122.612 61.7301C120.513 63.2343 118.502 64.9309 116.578 66.8198C114.689 68.7088 113.027 70.7202 111.593 72.854C112.992 73.3788 114.444 73.7635 115.948 74.0084C117.452 74.2533 118.974 74.3757 120.513 74.3757ZM102.935 82.8761C103.075 82.2464 103.233 81.5993 103.408 80.9346C103.617 80.27 103.845 79.5879 104.09 78.8882C104.964 76.6844 106.241 74.4981 107.92 72.3293C106.731 71.6647 105.629 70.8951 104.614 70.0206C103.635 69.1461 102.743 68.1491 101.938 67.0297L101.729 67.2921C100.189 69.216 99.4198 71.5073 99.4198 74.1658C99.4198 75.635 99.6996 77.1217 100.259 78.6259C100.819 80.1301 101.711 81.5468 102.935 82.8761ZM116.735 88.7004C119.254 88.7004 121.598 88.2281 123.766 87.2837C125.935 86.3392 127.667 84.9924 128.961 83.2434C130.29 81.4943 130.955 79.413 130.955 76.9993C130.955 76.6145 130.938 76.2297 130.903 75.8449C130.868 75.4601 130.815 75.0578 130.745 74.6381L130.535 73.5362C127.247 74.6556 123.784 75.2153 120.146 75.2153C118.572 75.2153 117.015 75.0928 115.476 74.848C113.937 74.6031 112.45 74.2358 111.016 73.7461C109.652 75.8799 108.567 78.1362 107.763 80.5149C107.483 81.4943 107.238 82.4213 107.028 83.2958C106.818 84.1704 106.678 85.0099 106.608 85.8145C106.748 85.9194 106.888 86.0244 107.028 86.1293C107.168 86.1993 107.308 86.2692 107.448 86.3392C108.952 87.1437 110.491 87.7384 112.065 88.1232C113.64 88.508 115.196 88.7004 116.735 88.7004ZM139.373 94.4722C138.708 94.4722 138.114 94.2099 137.589 93.6852C137.064 93.1255 136.802 92.146 136.802 90.7468C136.802 89.8023 136.994 88.578 137.379 87.0738C137.764 85.5696 138.271 83.908 138.901 82.089C139.565 80.27 140.283 78.416 141.052 76.527C141.857 74.6031 142.661 72.7841 143.466 71.07C144.305 69.321 145.075 67.7643 145.775 66.4001C146.509 65.0358 147.139 64.0039 147.664 63.3042C148.573 62.0799 149.5 61.1529 150.444 60.5233C151.424 59.8586 152.263 59.5263 152.963 59.5263C154.117 59.5263 154.695 60.2434 154.695 61.6776C154.695 62.4472 154.467 63.4442 154.013 64.6685C153.558 65.8579 152.806 67.2921 151.756 68.9712C150.987 70.1955 150.112 71.4898 149.133 72.854C148.188 74.1833 147.226 75.4776 146.247 76.7369C145.267 77.9962 144.323 79.1331 143.413 80.1476C142.539 81.127 141.787 81.8966 141.157 82.4563C141.157 82.4563 141.035 82.8061 140.79 83.5057C140.545 84.1704 140.248 85.0274 139.898 86.0768C139.583 87.0913 139.303 88.1407 139.058 89.2251C138.813 90.3095 138.691 91.254 138.691 92.0586C138.691 92.5833 138.761 93.0205 138.901 93.3703C139.076 93.6852 139.338 93.8426 139.688 93.8426C140.213 93.8426 140.93 93.4928 141.839 92.7932C142.399 92.3734 142.941 91.8837 143.466 91.324C143.991 90.7293 144.445 90.1521 144.83 89.5924C145.25 89.0327 145.53 88.6304 145.67 88.3856C145.984 87.8958 146.352 87.2662 146.771 86.4966C147.226 85.727 147.646 85.0099 148.031 84.3453C148.416 83.6456 148.643 83.2084 148.713 83.0335C148.783 82.9635 148.835 82.9285 148.87 82.9285C148.94 82.9285 149.028 82.981 149.133 83.086C149.238 83.1559 149.255 83.2259 149.185 83.2958C148.346 85.0449 147.559 86.5316 146.824 87.7559C146.124 88.9802 145.407 90.0297 144.673 90.9042C143.938 91.7437 143.116 92.5483 142.206 93.3179C141.822 93.6677 141.367 93.9475 140.842 94.1574C140.352 94.3673 139.863 94.4722 139.373 94.4722ZM141.524 81.3019C142.364 80.3225 143.361 79.0981 144.515 77.6289C145.67 76.1248 146.841 74.5506 148.031 72.9065C149.22 71.2624 150.252 69.7232 151.127 68.289C152.001 66.8548 152.613 65.5955 152.963 64.5111C153.348 63.4267 153.54 62.5522 153.54 61.8875C153.54 60.943 153.243 60.4708 152.648 60.4708C152.263 60.4708 151.739 60.7856 151.074 61.4153C150.444 62.01 149.762 62.9719 149.028 64.3012C148.503 65.2457 147.926 66.3826 147.296 67.7118C146.667 69.0411 146.037 70.4404 145.407 71.9096C144.778 73.3788 144.183 74.778 143.623 76.1073C143.064 77.4016 142.591 78.5209 142.206 79.4654C141.857 80.4099 141.629 81.0221 141.524 81.3019ZM149.052 94.2624C147.862 94.2624 147.04 93.93 146.585 93.2654C146.166 92.6008 145.956 91.7787 145.956 90.7992C145.956 89.7848 146.131 88.7179 146.48 87.5985C146.83 86.4791 147.163 85.5871 147.477 84.9225C148.597 82.5787 150.153 80.7947 152.147 79.5704C154.176 78.3111 156.258 77.6814 158.391 77.6814C158.671 77.6814 158.951 77.6814 159.231 77.6814C159.546 77.6814 159.843 77.7164 160.123 77.7863C160.823 77.8913 161.172 77.9787 161.172 78.0487C161.172 78.1187 160.91 78.1886 160.385 78.2586C159.896 78.3286 159.528 78.3635 159.283 78.3635C157.569 78.3635 156.03 78.8183 154.666 79.7278C153.337 80.6373 152.2 81.7917 151.255 83.1909C150.311 84.5901 149.576 86.0244 149.052 87.4936C148.562 88.9278 148.317 90.1696 148.317 91.219C148.317 91.8837 148.422 92.4259 148.632 92.8456C148.877 93.2654 149.226 93.4753 149.681 93.4753C150.171 93.4753 150.731 93.143 151.36 92.4783C151.99 91.8137 152.602 91.0091 153.197 90.0646C153.791 89.0852 154.334 88.1407 154.823 87.2312C155.313 86.2867 155.68 85.5696 155.925 85.0799L158.182 80.3574C158.776 80.2175 159.371 80.0601 159.966 79.8852C160.595 79.6753 161.19 79.4479 161.75 79.2031C161.155 80.2175 160.578 81.2844 160.018 82.4038C159.493 83.5232 158.951 84.6251 158.391 85.7095C157.972 86.5141 157.552 87.4586 157.132 88.543C156.747 89.6274 156.555 90.6069 156.555 91.4814V91.6913C156.555 91.9711 156.59 92.2859 156.66 92.6357C156.73 92.9506 156.922 93.108 157.237 93.108C157.622 93.108 158.112 92.8806 158.706 92.4259C159.301 91.9361 159.721 91.5688 159.966 91.324C161.085 90.2046 162.047 88.9627 162.852 87.5985C163.691 86.2342 164.461 84.8525 165.16 83.4533C165.23 83.3833 165.283 83.3483 165.318 83.3483C165.598 83.3483 165.702 83.4882 165.632 83.7681C165.632 83.7681 165.545 83.9255 165.37 84.2403C165.23 84.5552 165.143 84.7301 165.108 84.765C164.443 85.9894 163.779 87.1612 163.114 88.2806C162.449 89.4 161.662 90.4669 160.753 91.4814C160.193 92.0411 159.511 92.6357 158.706 93.2654C157.902 93.8951 157.097 94.2099 156.293 94.2099C155.523 94.2099 154.981 93.9125 154.666 93.3179C154.351 92.6882 154.194 91.9886 154.194 91.219C154.194 90.7293 154.229 90.257 154.299 89.8023C154.404 89.3126 154.509 88.8928 154.614 88.543C154.369 89.1726 153.931 89.9422 153.302 90.8517C152.707 91.7612 152.025 92.5658 151.255 93.2654C150.521 93.93 149.786 94.2624 149.052 94.2624ZM168.696 94.2624C167.227 94.2624 166.492 93.4403 166.492 91.7962C166.492 91.1665 166.615 90.4145 166.859 89.5399C167.104 88.6654 167.489 87.7034 168.014 86.654C168.294 86.0244 168.678 85.2723 169.168 84.3977C169.658 83.4882 170.095 82.5962 170.48 81.7217C170.9 80.8472 171.11 80.1476 171.11 79.6228C171.11 79.0981 170.83 78.8358 170.27 78.8358C170.025 78.8358 169.71 78.9057 169.326 79.0457C168.941 79.1506 168.416 79.2905 167.751 79.4654C167.472 80.165 167.017 81.1445 166.387 82.4038C165.792 83.6282 165.128 84.8875 164.393 86.1818C163.659 87.4761 162.959 88.5954 162.294 89.5399C162.294 89.5399 162.277 89.5574 162.242 89.5924C162.242 89.5924 162.207 89.5924 162.137 89.5924C162.067 89.5924 161.962 89.5749 161.822 89.5399C161.717 89.47 161.682 89.4175 161.717 89.3825C162.277 88.578 162.854 87.651 163.449 86.6015C164.043 85.5171 164.603 84.4502 165.128 83.4008C165.688 82.3514 166.142 81.4593 166.492 80.7247C166.877 79.9552 167.087 79.5004 167.122 79.3605C166.597 79.1856 166.177 78.7833 165.862 78.1536C165.583 77.489 165.443 76.8244 165.443 76.1597C165.443 75.5651 165.583 75.0578 165.862 74.6381C166.142 74.2183 166.562 74.0084 167.122 74.0084C167.542 74.0084 167.821 74.2358 167.961 74.6905C168.136 75.1103 168.224 75.6175 168.224 76.2122C168.224 76.9818 168.136 77.7514 167.961 78.5209C167.961 78.5209 168.154 78.486 168.539 78.416C168.923 78.346 169.378 78.2936 169.903 78.2586C170.427 78.1886 170.882 78.1536 171.267 78.1536C172.421 78.1536 172.999 78.7133 172.999 79.8327C172.999 80.5323 172.806 81.4419 172.421 82.5612C172.037 83.6456 171.547 84.905 170.952 86.3392C169.763 89.1726 169.168 91.1665 169.168 92.3209C169.168 93.0205 169.396 93.3703 169.85 93.3703C170.41 93.3703 171.197 92.9156 172.211 92.0061C173.226 91.0966 174.153 89.9597 174.992 88.5954C175.867 87.1962 176.934 85.3247 178.193 82.981C178.228 82.9111 178.281 82.8761 178.351 82.8761C178.456 82.8761 178.543 82.9285 178.613 83.0335C178.718 83.1034 178.753 83.1734 178.718 83.2434C176.794 86.8814 175.115 89.6274 173.681 91.4814C172.246 93.3354 170.585 94.2624 168.696 94.2624ZM178.515 94.2624C177.326 94.2624 176.504 93.93 176.049 93.2654C175.63 92.6008 175.42 91.7787 175.42 90.7992C175.42 89.7848 175.595 88.7179 175.944 87.5985C176.294 86.4791 176.626 85.5871 176.941 84.9225C178.061 82.5787 179.617 80.7947 181.611 79.5704C183.64 78.3111 185.722 77.6814 187.855 77.6814C188.135 77.6814 188.415 77.6814 188.695 77.6814C189.01 77.6814 189.307 77.7164 189.587 77.7863C190.287 77.8913 190.636 77.9787 190.636 78.0487C190.636 78.1187 190.374 78.1886 189.849 78.2586C189.36 78.3286 188.992 78.3635 188.747 78.3635C187.033 78.3635 185.494 78.8183 184.13 79.7278C182.801 80.6373 181.664 81.7917 180.719 83.1909C179.775 84.5901 179.04 86.0244 178.515 87.4936C178.026 88.9278 177.781 90.1696 177.781 91.219C177.781 91.8837 177.886 92.4259 178.096 92.8456C178.341 93.2654 178.69 93.4753 179.145 93.4753C179.635 93.4753 180.195 93.143 180.824 92.4783C181.454 91.8137 182.066 91.0091 182.661 90.0646C183.255 89.0852 183.798 88.1407 184.287 87.2312C184.777 86.2867 185.144 85.5696 185.389 85.0799L187.645 80.3574C188.24 80.2175 188.835 80.0601 189.429 79.8852C190.059 79.6753 190.654 79.4479 191.214 79.2031C190.619 80.2175 190.042 81.2844 189.482 82.4038C188.957 83.5232 188.415 84.6251 187.855 85.7095C187.436 86.5141 187.016 87.4586 186.596 88.543C186.211 89.6274 186.019 90.6069 186.019 91.4814V91.6913C186.019 91.9711 186.054 92.2859 186.124 92.6357C186.194 92.9506 186.386 93.108 186.701 93.108C187.086 93.108 187.575 92.8806 188.17 92.4259C188.765 91.9361 189.185 91.5688 189.429 91.324C190.549 90.2046 191.511 88.9627 192.315 87.5985C193.155 86.2342 193.925 84.8525 194.624 83.4533C194.694 83.3833 194.747 83.3483 194.782 83.3483C195.061 83.3483 195.166 83.4882 195.096 83.7681C195.096 83.7681 195.009 83.9255 194.834 84.2403C194.694 84.5552 194.607 84.7301 194.572 84.765C193.907 85.9894 193.242 87.1612 192.578 88.2806C191.913 89.4 191.126 90.4669 190.217 91.4814C189.657 92.0411 188.975 92.6357 188.17 93.2654C187.366 93.8951 186.561 94.2099 185.756 94.2099C184.987 94.2099 184.445 93.9125 184.13 93.3179C183.815 92.6882 183.658 91.9886 183.658 91.219C183.658 90.7293 183.693 90.257 183.763 89.8023C183.868 89.3126 183.972 88.8928 184.077 88.543C183.833 89.1726 183.395 89.9422 182.766 90.8517C182.171 91.7612 181.489 92.5658 180.719 93.2654C179.985 93.93 179.25 94.2624 178.515 94.2624Z" fill="#E0B9B4" fill-opacity="0.8" shape-rendering="crispEdges"/>
</g>
<g filter="url(#filter2_d_6_5)">
<path d="M4.43524 121.264C4.35994 121.213 4.32229 121.163 4.32229 121.113C4.32229 121.063 4.35994 121.013 4.43524 120.962C4.48544 120.887 4.53564 120.837 4.58584 120.812C5.08785 120.661 5.55221 120.498 5.97892 120.322C6.43073 120.147 6.85744 119.896 7.25905 119.569C7.38455 119.444 7.73596 118.954 8.31327 118.101C8.89058 117.222 9.6185 116.08 10.497 114.675C11.3755 113.269 12.3419 111.7 13.3961 109.968C14.4755 108.236 15.5548 106.442 16.6341 104.584L14.601 106.015C14.1993 106.316 13.8228 106.63 13.4714 106.956C13.1451 107.257 12.7435 107.596 12.2666 107.973C12.116 108.098 11.8775 108.161 11.5512 108.161C11.3002 108.161 11.0618 108.111 10.8359 108.01C10.61 107.91 10.497 107.81 10.497 107.709C10.497 107.609 10.5974 107.521 10.7982 107.446C11.0994 107.32 11.5763 107.044 12.229 106.617C12.9067 106.166 13.6471 105.651 14.4504 105.074C15.2536 104.496 16.0317 103.944 16.7847 103.417C17.5377 102.865 18.1652 102.413 18.6672 102.062C19.1944 101.71 19.483 101.535 19.5332 101.535C19.6085 101.56 19.6462 101.673 19.6462 101.873C19.6462 102.124 19.5583 102.488 19.3826 102.965C19.232 103.442 18.9935 103.969 18.6672 104.547C18.5417 104.773 18.228 105.3 17.726 106.128C17.2491 106.931 16.6592 107.898 15.9564 109.027C15.2536 110.157 14.5257 111.336 13.7726 112.566C13.0196 113.771 12.3168 114.913 11.6642 115.992C11.0116 117.072 10.4719 117.95 10.0452 118.628C9.6436 119.306 9.4428 119.67 9.4428 119.72C9.493 119.996 9.65615 120.222 9.93226 120.398C10.2084 120.548 10.4719 120.661 10.7229 120.736C10.9739 120.787 11.0994 120.824 11.0994 120.849C11.1998 120.925 11.25 121 11.25 121.075C11.2751 121.151 11.2249 121.201 11.0994 121.226C10.7731 121.176 10.4092 121.151 10.0076 121.151C9.60595 121.151 9.19179 121.151 8.76508 121.151C7.81126 121.151 6.89509 121.163 6.01657 121.188C5.16315 121.238 4.63604 121.264 4.43524 121.264ZM21.4137 123.598C19.6316 123.598 18.3263 123.134 17.498 122.205C16.6948 121.276 16.2932 120.197 16.2932 118.967C16.2932 117.913 16.5567 116.871 17.0838 115.842C17.6361 114.788 18.4142 113.909 19.4182 113.206C20.4222 112.503 21.6019 112.152 22.9574 112.152C23.2586 112.152 23.5849 112.227 23.9363 112.378C24.3128 112.503 24.6391 112.729 24.9152 113.056C25.1913 113.357 25.3294 113.758 25.3294 114.261C25.3294 114.486 25.2917 114.75 25.2164 115.051C25.1662 115.252 25.0533 115.377 24.8776 115.428C24.727 115.478 24.6768 115.39 24.727 115.164C24.8274 114.888 24.8776 114.624 24.8776 114.373C24.8776 113.871 24.7019 113.495 24.3505 113.244C24.0241 112.968 23.6476 112.817 23.2209 112.792C22.1416 112.717 21.2003 112.993 20.3971 113.62C19.5939 114.248 18.9664 115.051 18.5146 116.03C18.0879 116.984 17.8745 117.95 17.8745 118.929C17.8745 120.034 18.1632 121 18.7405 121.828C19.3429 122.657 20.2967 123.071 21.6019 123.071C23.1833 123.071 24.5889 122.782 25.8188 122.205C27.0739 121.628 28.1532 120.862 29.0568 119.908C29.9604 118.954 30.6632 117.888 31.1652 116.708C31.6924 115.503 32.0061 114.298 32.1065 113.093C32.232 111.361 31.843 110.106 30.9393 109.328C30.0608 108.525 28.9815 108.123 27.7014 108.123C26.2455 108.123 24.8525 108.525 23.5221 109.328C23.3464 109.328 23.1456 109.228 22.9197 109.027C22.6938 108.801 22.5181 108.588 22.3926 108.387C22.2922 108.161 22.3048 108.048 22.4303 108.048C22.4805 107.973 22.6436 107.747 22.9197 107.37C23.2209 106.994 23.5723 106.542 23.9739 106.015C24.4007 105.488 24.8148 104.961 25.2164 104.434C25.618 103.881 25.9694 103.379 26.2706 102.928C26.597 102.476 26.8103 102.162 26.9107 101.986C26.9107 101.986 26.9358 101.999 26.986 102.024C27.0613 102.049 27.2119 102.124 27.4378 102.25C27.7641 102.426 28.1281 102.513 28.5297 102.513C28.856 102.513 29.1698 102.476 29.471 102.401C29.7973 102.3 30.0859 102.2 30.3369 102.099C31.2155 101.848 32.1818 101.585 33.236 101.309C34.2903 101.007 35.2943 100.857 36.2481 100.857C36.6246 100.857 37.0011 100.894 37.3776 100.97C37.9047 101.07 38.3189 101.321 38.6201 101.723C38.9213 102.099 39.0719 102.539 39.0719 103.041C39.0719 103.141 39.0594 103.229 39.0343 103.304C39.0343 103.379 39.0217 103.467 38.9966 103.568C38.9464 103.819 38.8209 104.057 38.6201 104.283C38.4444 104.509 38.2562 104.685 38.0553 104.81C37.9549 104.885 37.8671 104.923 37.7918 104.923C37.6914 104.923 37.6412 104.86 37.6412 104.735C37.6412 104.609 37.7165 104.421 37.8671 104.17C37.9424 104.045 37.98 103.944 37.98 103.869C37.98 103.593 37.8169 103.329 37.4906 103.078C37.1643 102.802 36.7878 102.639 36.3611 102.589C36.1854 102.564 35.9971 102.551 35.7963 102.551C35.5955 102.526 35.3947 102.513 35.1939 102.513C34.2903 102.513 33.3866 102.601 32.483 102.777C31.5794 102.953 30.6883 103.078 29.8098 103.154C29.6341 103.179 29.4459 103.204 29.2451 103.229C29.0694 103.229 28.8811 103.229 28.6803 103.229C28.5548 103.229 28.4167 103.229 28.2661 103.229C28.1155 103.204 27.9775 103.179 27.852 103.154C27.7767 103.154 27.5633 103.379 27.2119 103.831C26.8856 104.258 26.5217 104.773 26.12 105.375C25.7184 105.952 25.3419 106.492 24.9905 106.994C24.6642 107.496 24.4634 107.822 24.3881 107.973C24.9654 107.722 25.5553 107.546 26.1577 107.446C26.7852 107.32 27.3751 107.257 27.9273 107.257C29.1321 107.257 30.224 107.496 31.2029 107.973C32.2069 108.425 32.985 109.077 33.5372 109.931C34.1146 110.784 34.3405 111.813 34.215 113.018C34.0895 114.173 33.7255 115.365 33.1231 116.595C32.5207 117.825 31.6798 118.979 30.6005 120.059C29.5212 121.113 28.2159 121.966 26.6848 122.619C25.1537 123.272 23.3966 123.598 21.4137 123.598ZM40.292 129.584C39.1876 129.584 38.1585 129.434 37.2047 129.133C36.2509 128.831 35.4853 128.329 34.908 127.627C34.3056 126.924 34.0044 125.995 34.0044 124.84C34.0044 124.439 34.042 124.037 34.1173 123.636C34.1173 123.485 34.2052 123.41 34.3809 123.41C34.5315 123.41 34.6068 123.472 34.6068 123.598C34.6068 123.749 34.6068 123.887 34.6068 124.012C34.5817 124.138 34.5691 124.263 34.5691 124.389C34.5691 125.468 34.8829 126.346 35.5104 127.024C36.1128 127.702 36.9035 128.191 37.8824 128.493C38.8613 128.819 39.903 128.982 41.0074 128.982C41.8106 128.982 42.6138 128.894 43.4171 128.718C44.2203 128.568 44.9607 128.354 45.6385 128.078C47.1194 127.451 48.4999 126.585 49.78 125.48C51.0602 124.401 52.2775 123.221 53.4322 121.941C53.2565 121.966 53.0682 121.979 52.8674 121.979C52.6917 122.004 52.5034 122.017 52.3026 122.017C51.65 122.017 51.01 121.954 50.3825 121.828C49.78 121.703 49.2027 121.527 48.6505 121.301C46.8182 120.473 45.4878 119.343 44.6595 117.913C43.8563 116.457 43.4547 114.875 43.4547 113.169C43.4547 111.989 43.6179 110.784 43.9442 109.554C44.2956 108.299 44.785 107.094 45.4125 105.94C45.2619 105.262 45.1866 104.559 45.1866 103.831C45.1866 102.35 45.513 100.857 46.1656 99.3508C46.8182 97.8197 47.772 96.4266 49.027 95.1715C50.3072 93.8914 51.8885 92.8623 53.771 92.0842C55.6536 91.3061 57.8373 90.917 60.3223 90.917C62.2801 90.917 64.0748 91.2433 65.7063 91.8959C67.3379 92.5234 68.6933 93.4522 69.7726 94.6821C70.8519 95.8869 71.5297 97.3678 71.8058 99.1249C73.111 97.6942 74.366 96.414 75.5708 95.2845C76.7757 94.155 77.9177 93.2765 78.9971 92.6489C79.9509 92.0967 80.8671 91.6951 81.7456 91.4441C82.6241 91.1931 83.4524 91.0676 84.2305 91.0676C85.586 91.0676 86.6904 91.419 87.5438 92.1218C88.4223 92.7995 88.8616 93.7032 88.8616 94.8327C88.8616 95.8618 88.4223 97.0415 87.5438 98.3719C86.6653 99.6771 85.1969 101.033 83.1387 102.438C82.1848 103.091 81.1934 103.668 80.1642 104.17C79.1602 104.672 78.1311 105.099 77.0769 105.45L76.1356 106.994C75.9097 107.345 75.5959 107.885 75.1943 108.613C74.7927 109.316 74.3535 110.119 73.8766 111.023C73.4247 111.926 72.9855 112.867 72.5588 113.846C72.1321 114.8 71.7807 115.716 71.5046 116.595C71.2284 117.473 71.0904 118.239 71.0904 118.892C71.0904 119.619 71.3163 120.121 71.7681 120.398C71.9438 120.498 72.1697 120.548 72.4458 120.548C73.0482 120.548 73.7134 120.272 74.4413 119.72C75.1943 119.143 75.9474 118.352 76.7004 117.348C77.4785 116.319 78.1938 115.126 78.8465 113.771C78.9218 113.646 79.0096 113.583 79.11 113.583C79.2857 113.583 79.3359 113.683 79.2606 113.884C78.608 115.239 77.8926 116.469 77.1145 117.574C76.3615 118.678 75.5583 119.569 74.7049 120.247C73.8766 120.9 73.0106 121.226 72.107 121.226C71.1029 121.226 70.3625 120.912 69.8856 120.285C69.4338 119.632 69.2079 118.791 69.2079 117.762C69.233 115.829 69.7099 113.897 70.6386 111.964C71.5924 110.031 72.7596 108.149 74.1401 106.316C73.5377 106.442 72.9353 106.567 72.3329 106.693C71.7556 106.793 71.1531 106.893 70.5256 106.994C70.3248 107.521 70.0864 108.048 69.8103 108.575C69.5342 109.102 69.2204 109.655 68.869 110.232C66.7857 113.646 64.5266 116.281 62.0919 118.139C59.6822 119.971 57.3604 121.151 55.1265 121.678C53.7961 123.058 52.3528 124.363 50.7966 125.593C49.2404 126.848 47.5837 127.827 45.8267 128.53C45.0235 128.856 44.1324 129.107 43.1535 129.283C42.1997 129.484 41.2459 129.584 40.292 129.584ZM61.753 106.279L66.1205 106.09C66.9739 105.011 67.8148 103.957 68.6431 102.928C69.4714 101.898 70.2872 100.92 71.0904 99.9909C70.9147 98.1836 70.3123 96.665 69.2832 95.4351C68.2791 94.2052 66.9739 93.2765 65.3675 92.6489C63.7861 91.9963 62.0417 91.67 60.134 91.67C57.7746 91.67 55.7038 92.0716 53.9216 92.8748C52.1395 93.6781 50.646 94.7323 49.4412 96.0375C48.2615 97.3427 47.3829 98.7609 46.8056 100.292C46.2534 101.798 46.0275 103.266 46.1279 104.697C47.5837 102.363 49.2278 100.681 51.0602 99.652C52.9176 98.5978 54.6621 98.0707 56.2936 98.0707C57.3981 98.0707 58.4021 98.2966 59.3057 98.7484C60.2093 99.1751 60.9247 99.79 61.4518 100.593C61.9789 101.396 62.2425 102.375 62.2425 103.53C62.2425 104.409 62.0793 105.325 61.753 106.279ZM71.0527 105.676C72.4584 105.526 73.8138 105.3 75.119 104.998C76.7255 103.015 78.4072 101.145 80.1642 99.3884C81.9464 97.6063 83.4901 95.9873 84.7953 94.5315C84.9208 94.406 85.0212 94.3432 85.0965 94.3432C85.222 94.3432 85.2848 94.4311 85.2848 94.6068C85.2848 94.7072 85.2345 94.795 85.1341 94.8703C84.105 95.8744 82.9378 97.2172 81.6326 98.899C80.3525 100.581 79.0849 102.375 77.8299 104.283C78.6833 104.007 79.5116 103.693 80.3148 103.342C81.1432 102.965 81.9338 102.539 82.6868 102.062C84.72 100.782 86.1758 99.539 87.0543 98.3342C87.958 97.1294 88.4098 96.0752 88.4098 95.1715C88.4098 94.3181 88.096 93.653 87.4685 93.1761C86.841 92.674 85.9876 92.423 84.9082 92.423C84.1803 92.423 83.3646 92.5611 82.4609 92.8372C81.5573 93.0882 80.6035 93.5024 79.5995 94.0797C78.4449 94.7825 77.2149 95.7489 75.9097 96.9788C74.6296 98.2087 73.3118 99.6018 71.9564 101.158C71.9313 102.539 71.6301 104.045 71.0527 105.676ZM49.0647 110.157C49.4663 109.353 50.2319 108.613 51.3614 107.935C52.516 107.257 54.0973 106.818 56.1054 106.617C57.762 106.467 59.4814 106.354 61.2635 106.279C61.5898 105.375 61.753 104.496 61.753 103.643C61.753 102.137 61.251 100.957 60.247 100.104C59.268 99.2253 58.0381 98.786 56.5572 98.786C55.503 98.786 54.3734 99.0496 53.1686 99.5767C51.9638 100.079 50.7715 100.869 49.5918 101.949C48.4121 103.028 47.3327 104.446 46.3538 106.203C46.5546 107.006 46.8809 107.747 47.3327 108.425C47.7845 109.102 48.3619 109.68 49.0647 110.157ZM67.9654 105.977L70.1868 105.789C70.4378 105.136 70.626 104.509 70.7515 103.907C70.9021 103.304 71.0025 102.727 71.0527 102.175C70.5507 102.777 70.0362 103.405 69.5091 104.057C69.0071 104.685 68.4925 105.325 67.9654 105.977ZM55.8418 120.887C57.8499 120.285 59.9207 119.117 62.0542 117.386C64.1877 115.654 66.1832 113.244 68.0407 110.157C68.367 109.629 68.6556 109.115 68.9066 108.613C69.1828 108.111 69.4338 107.621 69.6597 107.145L66.7606 107.483C65.2294 109.391 63.6857 111.336 62.1295 113.319C60.5984 115.277 59.0798 117.147 57.5738 118.929C57.2977 119.256 57.009 119.582 56.7078 119.908C56.4317 120.234 56.143 120.561 55.8418 120.887ZM52.3779 121.452C52.9051 121.452 53.4447 121.414 53.9969 121.339C54.4487 120.812 54.888 120.285 55.3147 119.758C55.7665 119.23 56.1932 118.716 56.5948 118.214C57.9503 116.582 59.3182 114.863 60.6988 113.056C62.1044 111.248 63.4975 109.454 64.878 107.672C64.2505 107.722 63.6104 107.772 62.9578 107.822C62.3052 107.872 61.6526 107.923 61 107.973C60.5231 108.851 59.8579 109.73 59.0045 110.608C58.1762 111.462 57.1345 112.29 55.8795 113.093C55.1265 113.57 54.4236 113.909 53.771 114.11C53.1184 114.311 52.5034 114.411 51.9261 114.411C50.9221 114.411 50.1314 114.135 49.5541 113.583C48.9768 113.031 48.6882 112.365 48.6882 111.587C48.6882 111.236 48.7384 110.91 48.8388 110.608C48.136 110.207 47.5335 109.717 47.0315 109.14C46.5295 108.563 46.1279 107.923 45.8267 107.22C45.3498 108.249 44.9607 109.303 44.6595 110.382C44.3834 111.462 44.2454 112.516 44.2454 113.545C44.2454 115.076 44.5968 116.494 45.2996 117.8C46.0275 119.08 47.2198 120.071 48.8764 120.774C49.9306 121.226 51.0978 121.452 52.3779 121.452ZM51.9261 113.922C52.3779 113.922 52.9051 113.821 53.5075 113.62C54.135 113.42 54.8252 113.093 55.5783 112.642C56.758 111.914 57.7369 111.161 58.515 110.382C59.3182 109.604 59.9583 108.826 60.4352 108.048L57.875 108.274C56.0426 108.45 54.5617 108.801 53.4322 109.328C52.3026 109.855 51.4743 110.42 50.9472 111.023C51.8508 111.274 52.88 111.386 54.0346 111.361C54.3107 111.361 54.4487 111.424 54.4487 111.55C54.4487 111.675 54.3232 111.738 54.0722 111.738C53.4447 111.763 52.8423 111.75 52.265 111.7C51.7128 111.625 51.1857 111.512 50.6837 111.361C50.3825 111.813 50.2319 112.227 50.2319 112.604C50.2319 112.98 50.3699 113.294 50.646 113.545C50.9472 113.796 51.3739 113.922 51.9261 113.922ZM85.7739 121.188C84.7197 121.188 84.1926 120.598 84.1926 119.419C84.1926 118.967 84.2804 118.427 84.4561 117.8C84.6318 117.172 84.9079 116.482 85.2845 115.729C85.4853 115.302 85.7488 114.8 86.0751 114.223C86.4265 113.62 86.7403 113.031 87.0164 112.453C87.2925 111.876 87.4306 111.424 87.4306 111.098C87.4306 110.772 87.2548 110.608 86.9034 110.608C86.4265 110.608 85.9245 110.872 85.3974 111.399C84.8954 111.901 84.3934 112.554 83.8914 113.357C83.3894 114.16 82.9125 115.001 82.4606 115.879C82.0088 116.758 81.6198 117.586 81.2935 118.364C80.9672 119.117 80.7287 119.695 80.5781 120.096C80.4275 120.473 80.2141 120.711 79.938 120.812C79.6619 120.912 79.3607 120.962 79.0344 120.962C78.7332 120.962 78.4446 121.013 78.1685 121.113C78.5199 120.31 78.8085 119.657 79.0344 119.155C79.2603 118.653 79.4988 118.151 79.7498 117.649C80.0008 117.122 80.302 116.419 80.6534 115.541C80.8542 115.089 81.0801 114.574 81.3311 113.997C81.5821 113.395 81.7955 112.817 81.9712 112.265C82.172 111.688 82.2724 111.236 82.2724 110.91C82.2724 110.533 82.1469 110.345 81.8959 110.345C81.5947 110.345 81.2935 110.533 80.9923 110.91C80.6911 111.286 80.415 111.713 80.1639 112.19C79.938 112.642 79.7498 113.005 79.5992 113.282C79.2227 114.01 78.8462 114.725 78.4697 115.428C78.0932 116.13 77.6664 116.808 77.1895 117.461H77.1519C77.0766 117.461 76.9887 117.436 76.8883 117.386C76.813 117.335 76.7879 117.298 76.813 117.273C77.2397 116.595 77.6413 115.917 78.0179 115.239C78.4195 114.562 78.7834 113.884 79.1097 113.206C79.3858 112.679 79.687 112.127 80.0133 111.55C80.3397 110.947 80.7162 110.445 81.1429 110.044C81.5696 109.642 82.059 109.441 82.6112 109.441C82.8623 109.441 83.1509 109.504 83.4772 109.629C83.8286 109.78 84.0043 110.119 84.0043 110.646C84.0043 110.922 83.9541 111.261 83.8537 111.663C83.7533 112.064 83.6153 112.516 83.4396 113.018C84.0922 112.089 84.7824 111.299 85.5104 110.646C86.2383 109.968 86.9034 109.629 87.5059 109.629C88.4597 109.629 88.9366 110.081 88.9366 110.985C88.9366 111.537 88.7734 112.215 88.4471 113.018C88.3467 113.294 88.1585 113.733 87.8824 114.336C87.6314 114.913 87.3678 115.566 87.0917 116.294C86.8407 116.996 86.6148 117.674 86.414 118.327C86.2132 118.979 86.1128 119.519 86.1128 119.946C86.1128 120.398 86.2508 120.623 86.5269 120.623C86.7026 120.623 86.9285 120.548 87.2046 120.398C87.5059 120.222 87.8573 119.946 88.2589 119.569C88.9868 118.917 89.6645 118.088 90.292 117.084C90.9446 116.08 91.7102 114.737 92.5887 113.056C92.5887 113.005 92.6138 112.98 92.664 112.98C92.7393 112.98 92.8146 113.018 92.8899 113.093C92.9652 113.169 92.9778 113.231 92.9276 113.282C92.024 115.039 91.1956 116.507 90.4426 117.687C89.7147 118.841 88.9742 119.72 88.2212 120.322C87.4933 120.9 86.6775 121.188 85.7739 121.188ZM92.9452 121.188C92.1169 121.188 91.5396 120.962 91.2133 120.511C90.9121 120.034 90.7615 119.456 90.7615 118.779C90.7615 118.051 90.887 117.285 91.138 116.482C91.389 115.654 91.6274 114.988 91.8533 114.486C92.5311 112.905 93.3845 111.675 94.4136 110.797C95.4427 109.893 96.384 109.441 97.2374 109.441C97.9653 109.441 98.4548 109.655 98.7058 110.081C98.9819 110.508 99.1199 111.035 99.1199 111.663C99.1199 112.315 99.007 113.005 98.7811 113.733C98.5803 114.436 98.3544 115.039 98.1034 115.541C97.8022 116.168 97.4884 116.758 97.1621 117.31C96.8358 117.862 96.4969 118.364 96.1455 118.816C96.3714 119.017 96.6475 119.117 96.9739 119.117C97.4759 119.117 97.9653 118.879 98.4422 118.402C98.9442 117.925 99.4086 117.335 99.8353 116.633C100.287 115.93 100.676 115.252 101.002 114.599C101.354 113.947 101.617 113.457 101.793 113.131C101.843 113.056 101.894 113.018 101.944 113.018C101.994 113.018 102.044 113.068 102.094 113.169C102.145 113.244 102.145 113.332 102.094 113.432C101.693 114.286 101.191 115.239 100.588 116.294C100.011 117.348 99.3584 118.214 98.6305 118.892C98.3293 119.168 98.0406 119.368 97.7645 119.494C97.4884 119.619 97.2374 119.682 97.0115 119.682C96.5848 119.682 96.2083 119.519 95.882 119.193C95.4051 119.82 94.9156 120.31 94.4136 120.661C93.9116 121.013 93.4221 121.188 92.9452 121.188ZM93.397 120.623C93.6731 120.623 93.9994 120.46 94.3759 120.134C94.7525 119.783 95.1415 119.331 95.5431 118.779C95.5431 118.779 95.4678 118.653 95.3172 118.402C95.1917 118.151 95.129 117.775 95.129 117.273C95.129 117.072 95.1415 116.858 95.1666 116.633C95.1917 116.382 95.2545 116.13 95.3549 115.879C95.5306 115.377 95.7439 115.014 95.9949 114.788C96.2459 114.537 96.4969 114.411 96.7479 114.411C96.9739 114.411 97.1496 114.524 97.2751 114.75C97.4257 114.951 97.4633 115.252 97.388 115.654C97.7394 114.875 98.0281 114.122 98.254 113.395C98.4799 112.642 98.5928 111.989 98.5928 111.437C98.5928 111.01 98.505 110.671 98.3293 110.42C98.1787 110.144 97.9026 110.006 97.501 110.006C97.1496 110.006 96.7479 110.232 96.2961 110.684C95.8443 111.11 95.38 111.688 94.9031 112.416C94.4512 113.118 94.0245 113.884 93.6229 114.712C93.2464 115.541 92.9327 116.356 92.6817 117.16C92.4558 117.938 92.3428 118.615 92.3428 119.193C92.3428 119.619 92.4181 119.971 92.5687 120.247C92.7444 120.498 93.0205 120.623 93.397 120.623ZM103.15 121.377C101.544 121.377 100.439 121.088 99.8371 120.511C99.2598 119.933 98.9711 119.293 98.9711 118.59C98.9711 117.938 99.1343 117.348 99.4606 116.821C99.7869 116.269 100.113 115.942 100.439 115.842C100.665 115.44 100.904 115.001 101.155 114.524C101.431 114.047 101.682 113.583 101.908 113.131C102.36 112.227 102.824 111.374 103.301 110.571C103.778 109.742 104.292 109.077 104.845 108.575C105.422 108.073 106.024 107.822 106.652 107.822C106.953 107.822 107.267 107.885 107.593 108.01C107.919 108.161 108.083 108.312 108.083 108.462C108.083 108.563 108.032 108.638 107.932 108.688C107.832 108.738 107.719 108.751 107.593 108.726C107.141 108.6 106.727 108.726 106.351 109.102C105.974 109.479 105.786 109.993 105.786 110.646C105.786 110.746 105.786 110.859 105.786 110.985C105.811 111.085 105.836 111.198 105.861 111.324C106.012 111.926 106.162 112.616 106.313 113.395C106.489 114.173 106.577 114.963 106.577 115.767C106.577 116.068 106.564 116.369 106.539 116.67C106.514 116.971 106.451 117.26 106.351 117.536C106.024 118.465 105.573 119.205 104.995 119.758C104.443 120.285 103.765 120.674 102.962 120.925C103.565 120.95 104.192 120.9 104.845 120.774C105.522 120.623 106.1 120.41 106.577 120.134C107.405 119.657 108.133 119.005 108.76 118.176C109.413 117.348 109.99 116.482 110.492 115.578C110.994 114.65 111.446 113.809 111.848 113.056C111.873 112.955 111.948 112.905 112.074 112.905C112.149 112.905 112.212 112.943 112.262 113.018C112.312 113.068 112.312 113.131 112.262 113.206C111.76 114.135 111.245 115.076 110.718 116.03C110.191 116.959 109.601 117.825 108.949 118.628C108.296 119.406 107.518 120.046 106.614 120.548C105.635 121.1 104.481 121.377 103.15 121.377ZM101.607 120.736C102.109 120.736 102.623 120.573 103.15 120.247C103.677 119.921 104.054 119.444 104.28 118.816C104.556 118.038 104.719 117.172 104.769 116.218C104.845 115.239 104.882 114.323 104.882 113.47C104.882 112.616 104.895 111.964 104.92 111.512C104.97 110.809 105.158 110.157 105.485 109.554C105.811 108.927 106.363 108.55 107.141 108.425C106.966 108.324 106.79 108.274 106.614 108.274C106.188 108.274 105.748 108.462 105.296 108.839C104.845 109.215 104.506 109.554 104.28 109.855C103.928 110.332 103.59 110.897 103.263 111.55C102.937 112.202 102.573 112.893 102.171 113.62L101.042 115.654C101.117 115.628 101.23 115.616 101.381 115.616C101.782 115.616 102.033 115.729 102.134 115.955C102.259 116.181 102.297 116.344 102.247 116.444C102.171 116.419 102.096 116.407 102.021 116.407C101.971 116.382 101.92 116.369 101.87 116.369C101.444 116.369 101.067 116.545 100.741 116.896C100.439 117.247 100.226 117.637 100.101 118.063C100.05 118.239 100.013 118.415 99.9877 118.59C99.9626 118.741 99.95 118.879 99.95 119.005C99.95 119.607 100.113 120.046 100.439 120.322C100.766 120.598 101.155 120.736 101.607 120.736Z" fill="#F1FF4B" fill-opacity="0.8" shape-rendering="crispEdges"/>
</g>
<defs>
<filter id="filter0_d_6_5" x="22.1449" y="7.32651" width="137.428" height="61.5286" filterUnits="userSpaceOnUse" color-interpolation-filters="sRGB">
<feFlood flood-opacity="0" result="BackgroundImageFix"/>
<feColorMatrix in="SourceAlpha" type="matrix" values="0 0 0 0 0 0 0 0 0 0 0 0 0 0 0 0 0 0 127 0" result="hardAlpha"/>
<feOffset dy="4"/>
<feGaussianBlur stdDeviation="2"/>
<feComposite in2="hardAlpha" operator="out"/>
<feColorMatrix type="matrix" values="0 0 0 0 0 0 0 0 0 0 0 0 0 0 0 0 0 0 0.25 0"/>
<feBlend mode="normal" in2="BackgroundImageFix" result="effect1_dropShadow_6_5"/>
<feBlend mode="normal" in="SourceGraphic" in2="effect1_dropShadow_6_5" result="shape"/>
</filter>
<filter id="filter1_d_6_5" x="94.2129" y="54.1218" width="104.988" height="51.6562" filterUnits="userSpaceOnUse" color-interpolation-filters="sRGB">
<feFlood flood-opacity="0" result="BackgroundImageFix"/>
<feColorMatrix in="SourceAlpha" type="matrix" values="0 0 0 0 0 0 0 0 0 0 0 0 0 0 0 0 0 0 127 0" result="hardAlpha"/>
<feOffset dy="4"/>
<feGaussianBlur stdDeviation="2"/>
<feComposite in2="hardAlpha" operator="out"/>
<feColorMatrix type="matrix" values="0 0 0 0 0 0 0 0 0 0 0 0 0 0 0 0 0 0 0.25 0"/>
<feBlend mode="normal" in2="BackgroundImageFix" result="effect1_dropShadow_6_5"/>
<feBlend mode="normal" in="SourceGraphic" in2="effect1_dropShadow_6_5" result="shape"/>
</filter>
<filter id="filter2_d_6_5" x="0.322296" y="90.917" width="116.015" height="46.6674" filterUnits="userSpaceOnUse" color-interpolation-filters="sRGB">
<feFlood flood-opacity="0" result="BackgroundImageFix"/>
<feColorMatrix in="SourceAlpha" type="matrix" values="0 0 0 0 0 0 0 0 0 0 0 0 0 0 0 0 0 0 127 0" result="hardAlpha"/>
<feOffset dy="4"/>
<feGaussianBlur stdDeviation="2"/>
<feComposite in2="hardAlpha" operator="out"/>
<feColorMatrix type="matrix" values="0 0 0 0 0 0 0 0 0 0 0 0 0 0 0 0 0 0 0.25 0"/>
<feBlend mode="normal" in2="BackgroundImageFix" result="effect1_dropShadow_6_5"/>
<feBlend mode="normal" in="SourceGraphic" in2="effect1_dropShadow_6_5" result="shape"/>
</filter>
</defs>
</svg>
